<svg width="151" height="138" fill="none" xmlns="http://www.w3.org/2000/svg"><path fill-rule="evenodd" clip-rule="evenodd" d="M136.715 72.24c.2-3.408.879-6.261 1.446-7.847a26.685 26.685 0 011.848 7.888c2.436.186 5.107.736 7.888 1.849-1.586.566-4.439 1.246-7.848 1.445-.19 3.619-1.12 6.43-1.888 7.87-.935-2.616-1.362-5.308-1.473-7.843-2.535-.111-5.227-.538-7.844-1.472 1.441-.768 4.252-1.7 7.871-1.89z" fill="url(#paint0_linear)"/><path d="M67.95 25.988c-1.135 3.176-2.722 11.432 0 19.053 1.451-2.721 3.483-10.343 0-19.053z" fill="#C4C4C4"/><path d="M77.686 35.725c-3.175 1.134-11.431 2.722-19.053 0 2.722-1.452 10.344-3.484 19.053 0z" fill="#C4C4C4"/><path fill-rule="evenodd" clip-rule="evenodd" d="M70.213 112.177c.294-5.015 1.293-9.213 2.127-11.546a39.229 39.229 0 012.72 11.605 39.242 39.242 0 0111.605 2.72c-2.333.834-6.531 1.833-11.546 2.127-.28 5.324-1.65 9.46-2.78 11.579-1.374-3.85-2.002-7.81-2.165-11.54-3.73-.163-7.69-.791-11.54-2.166 2.118-1.13 6.255-2.499 11.58-2.779z" fill="url(#paint1_linear)"/><circle cx="100.682" cy="82.523" r="1.841" fill="#2F235A"/><circle cx="148.94" cy="29.725" r="1.841" fill="#FE9076"/><circle cx="50.32" cy="75.212" r="1.841" fill="#FFA400"/><circle cx="132.846" cy="110.923" r="1.841" fill="#23BB86"/><path d="M138.428 22.04C134.265 16.322 122.537 4.11 108.934 1" stroke="#FE9076" stroke-width="1.603" stroke-linecap="round"/><path d="M36.551 70.277C30.398 66.789 14.673 60.51 1 63.298" stroke="#FFA400" stroke-width="1.603" stroke-linecap="round"/><path d="M126.526 116.272c-3.153 2.782-10.739 10.683-15.858 20.031" stroke="#23BB86" stroke-width="1.603" stroke-linecap="round"/><defs><linearGradient id="paint0_linear" x1="138.371" y1="66.421" x2="138.371" y2="84.31" gradientUnits="userSpaceOnUse"><stop stop-color="#FFE89E"/><stop offset="1" stop-color="#FFBF1A"/></linearGradient><linearGradient id="paint1_linear" x1="72.649" y1="103.614" x2="72.649" y2="129.934" gradientUnits="userSpaceOnUse"><stop stop-color="#FFE89E"/><stop offset="1" stop-color="#FFBF1A"/></linearGradient></defs></svg>