<svg width="38" height="31" fill="none" xmlns="http://www.w3.org/2000/svg"><path d="M29.99 14.995A7.497 7.497 0 1029.99 0a7.497 7.497 0 000 14.995zm.469-6.092a.712.712 0 00-.15-.506h-.787a2.118 2.118 0 01-1.875-2.343 2.25 2.25 0 011.406-2.23v-.469a.937.937 0 111.874 0v.394h.469a.937.937 0 110 1.874h-1.874c.093 0 0 .188 0 .469a.712.712 0 00.15.506h.787a2.118 2.118 0 011.874 2.343 2.249 2.249 0 01-1.406 2.23v.506a.937.937 0 01-1.874 0v-.43h-.469a.937.937 0 110-1.875h1.875c-.094 0 0-.188 0-.469zm-24.836 3.28V27.18a.937.937 0 01-.937.937H.937A.937.937 0 010 27.179V12.184a.937.937 0 01.937-.938h3.749a.937.937 0 01.937.938zm31.865 8.023a2.869 2.869 0 01-1.669 2.699L20.056 29.99a.844.844 0 01-.375 0h-.225L7.498 26.972V12.39l4.46-1.144h7.723a2.811 2.811 0 012.812 2.812v.412a2.793 2.793 0 01-2.137 2.718l-5.36 1.35v.412l6.56 1.63L34 17.489a2.7 2.7 0 012.4.506 2.776 2.776 0 011.087 2.212z" fill="#F53838"/></svg>