<svg width="29" height="21" fill="none" xmlns="http://www.w3.org/2000/svg"><path d="M2.793.554C1.258.554 0 1.87 0 3.475V18.08C0 19.685 1.258 21 2.793 21H25.84c1.535 0 2.793-1.315 2.793-2.92V3.474c0-1.605-1.258-2.92-2.793-2.92H2.793zm0 1.46H25.84c.202 0 .385.05.556.126L15.19 12.603c-.53.494-1.194.494-1.724 0L2.237 2.14c.171-.076.355-.125.556-.125zM1.408 3.328l8.03 7.484-7.888 7.93a1.566 1.566 0 01-.153-.662V3.475c0-.051.006-.099.01-.148zm25.818 0c.004.05.01.097.01.148V18.08c0 .239-.06.466-.152.662L19.216 10.8l8.01-7.473zm-9.057 8.454l7.704 7.759H2.76l7.725-7.747 2.052 1.905a2.598 2.598 0 003.579 0l2.052-1.917z" fill="#F53838"/></svg>