<svg width="29" height="21" fill="none" xmlns="http://www.w3.org/2000/svg"><path d="M2.793 0C1.258 0 0 1.315 0 2.92v14.605c0 1.606 1.258 2.921 2.793 2.921H25.84c1.535 0 2.793-1.315 2.793-2.92V2.92c0-1.605-1.258-2.92-2.793-2.92H2.793zm0 1.46H25.84c.202 0 .385.05.556.126L15.19 12.049c-.53.494-1.194.494-1.724 0L2.237 1.586a1.34 1.34 0 01.556-.126zM1.408 2.773l8.03 7.484-7.888 7.93a1.566 1.566 0 01-.153-.662V2.921c0-.051.006-.099.01-.148zm25.818 0c.004.05.01.097.01.148v14.604c0 .239-.06.465-.152.662l-7.868-7.941 8.01-7.473zm-9.057 8.454l7.704 7.759H2.76l7.725-7.748 2.052 1.906a2.598 2.598 0 003.579 0l2.052-1.917z" fill="#fff"/></svg>