<svg width="1171" height="690" fill="none" xmlns="http://www.w3.org/2000/svg"><path d="M68.936 486.675c-.509-.581-1.308-4.649-1.744-9.007-.436-4.431-1.162-8.28-1.525-8.643-.436-.364-2.325-1.235-4.213-1.962-2.905-1.016-3.995-2.033-6.101-5.302-2.397-3.777-2.47-4.14-1.671-6.828.436-1.525 1.235-2.978 1.743-3.123 1.453-.581 6.755 1.671 10.387 4.358 2.252 1.743 4.14 2.615 5.738 2.615 1.962 0 2.833.581 4.94 3.123 2.397 2.906 2.615 3.559 2.615 7.845-.073 6.973-.945 9.733-4.431 13.655-3.777 4.213-4.649 4.649-5.739 3.269zm-7.118-59.779c-.8-.508-.8-1.162-.073-3.559 1.308-4.576.726-5.23-4.649-5.23h-4.648l-.509-3.704c-.436-3.269-.726-3.777-2.978-4.867-1.38-.654-2.542-1.598-2.542-2.179 0-1.235 5.666-9.588 6.537-9.588.363 0 .872.654 1.09 1.38.726 2.252 10.46 4.504 12.42 2.906.654-.582 3.923-1.163 7.627-1.381 5.956-.363 6.392-.29 6.755 1.09.8 2.905.363 5.012-1.453 7.482-2.324 2.905-3.631 8.571-2.396 10.023.653.799.508 1.017-.654 1.017-.872 0-2.688 1.453-4.504 3.632-2.76 3.268-3.34 3.632-6.028 3.632-1.671-.073-3.487-.291-3.995-.654zm144.109-4.94l-5.012-3.341-2.688 1.598c-3.995 2.251-7.844 1.961-12.275-.872-3.051-1.961-3.632-2.615-3.414-4.14.218-1.308-.581-2.688-3.559-5.739-3.705-3.849-3.923-3.995-5.666-3.05-1.888.944-5.665.653-7.699-.581-1.526-1.017 2.833-4.649 9.37-7.99 2.978-1.598 6.464-3.341 7.627-3.995 1.525-.799 4.067-1.162 8.207-1.162 7.482 0 10.823 1.452 14.164 6.319 4.94 7.118 6.538 8.426 12.784 10.314 5.521 1.598 5.956 1.671 7.191.509 1.671-1.453 5.23-1.598 5.23-.218 0 .581-.509 1.452-1.09 1.961-.726.581-1.089 2.179-1.089 4.721v3.85l-4.068-.363c-3.414-.291-4.503-.073-6.755 1.38-6.973 4.648-5.738 4.576-11.258.799z" fill="#E5E5E5"/><path d="M81.793 418.979c-3.414-1.163-3.559-1.308-3.196-3.487.218-1.307 1.38-3.704 2.615-5.375 2.034-2.833 2.18-3.414 1.816-7.263-.436-3.56-.29-4.213.8-4.649.87-.363 1.96.072 3.268 1.307 1.816 1.816 2.179 1.889 8.789 1.453 3.777-.218 7.626-.508 8.643-.654 1.453-.218 2.107.218 3.051 1.816.726 1.235 1.743 2.179 2.324 2.179 1.598 0 3.342 2.906 3.342 5.666 0 1.816-.581 2.978-2.252 4.576-2.542 2.397-4.14 2.542-8.789.944l-3.341-1.162-4.722 2.978c-5.084 3.269-6.827 3.487-12.348 1.671zm83.893 5.374c-5.52-7.046-9.224-10.605-10.822-10.605-.799 0-1.889-.508-2.397-1.089-.727-.944-.654-1.38.436-2.615 1.089-1.235 1.162-1.743.435-2.906-1.307-2.106-.508-2.832 3.051-2.832 2.106 0 3.777.508 5.52 1.743 3.196 2.397 9.661 3.922 11.259 2.615.944-.799 1.38-.727 2.687.436 3.632 3.123 4.867 4.939 4.431 6.9-.29 1.671.073 2.179 2.615 3.559 3.341 1.889 3.777 2.906 1.38 2.906-.871 0-2.324.653-3.196 1.525-1.307 1.162-1.888 1.307-3.051.726-2.76-1.525-5.084-1.017-6.319 1.308-.581 1.162-1.38 2.324-1.743 2.542-.363.218-2.324-1.671-4.286-4.213zm-87.889 35.956c-1.816-2.252-2.978-2.978-5.375-3.342-1.888-.363-4.576-1.598-6.755-3.268-1.96-1.453-5.012-3.051-6.682-3.559-2.542-.727-3.124-1.235-3.124-2.543 0-.944-.653-3.559-1.452-5.883-1.889-5.52-1.889-5.738 1.09-7.118 1.38-.654 3.05-2.252 3.631-3.487 1.162-2.252 1.38-2.324 4.94-1.961 3.486.363 3.994.726 7.626 4.649 5.375 5.956 5.883 6.755 6.755 11.403.654 3.56 1.235 4.649 4.722 8.063 2.178 2.179 3.922 4.286 3.922 4.649 0 .363-.872 1.234-1.961 1.961-5.52 3.559-4.867 3.486-7.337.436zm24.407 9.296c-1.816-.944-2.905-2.179-3.486-3.922-.436-1.38-1.235-2.833-1.67-3.124-.51-.29-1.454-1.38-2.107-2.469-.727-1.09-2.252-2.107-3.487-2.397-1.235-.291-3.123-1.671-4.358-3.196l-2.179-2.615 2.542-.218c2.18-.218 3.05-.872 5.593-4.358 1.598-2.324 3.196-4.431 3.56-4.794.29-.363 1.38.291 2.324 1.38l1.743 2.034 3.196-1.308c1.743-.653 3.559-1.38 3.995-1.598.726-.29 8.28 8.789 8.28 9.879 0 .218-1.816 1.743-3.995 3.341l-3.995 2.906.146 5.375c.218 5.229.145 5.447-1.671 5.883-1.162.363-2.76.073-4.431-.799zm20.192-58.326c-.218-.871-.436-2.615-.436-3.85 0-2.179.218-2.324 3.196-2.832 4.14-.581 4.794-.146 4.794 3.341 0 3.196-.145 3.269-4.14 4.213-2.761.581-3.051.508-3.414-.872z" fill="#E5E5E5"/><path d="M118.038 430.673c-.145-.218.145-1.38.654-2.615.871-2.106.726-2.688-1.598-7.772-2.107-4.649-2.47-5.956-2.034-8.862.508-3.995-1.308-8.571-3.342-8.571-.653 0-1.961-1.162-2.832-2.542l-1.526-2.542 2.397-4.358c1.961-3.559 2.833-4.504 4.94-5.085 4.14-1.162 5.592-.871 7.481 1.526 1.598 2.033 2.542 2.397 8.862 3.631 9.079 1.744 14.091 5.303 9.079 6.465-1.307.291-2.034 1.453-3.341 5.375-1.526 4.358-1.598 5.375-.872 7.845.436 1.525 1.743 3.631 2.906 4.576 2.397 1.961 2.469 2.615.653 6.537-1.307 2.905-1.452 2.978-6.682 3.922-2.978.509-7.409 1.38-9.879 1.889-2.469.508-4.648.726-4.866.581zm9.007-16.852l4.721-1.307.218-3.922c.29-5.739-.509-6.465-6.755-5.884l-5.085.509.218 5.084c.218 5.375.509 6.9 1.38 6.9.363 0 2.688-.653 5.303-1.38zm-45.469 34.647c-.364-.508-1.017-2.905-1.526-5.23-.726-3.559-1.525-4.866-5.302-8.934-2.542-2.76-4.213-5.012-3.85-5.52 1.889-3.414 4.794-6.247 5.811-5.811.654.218 1.525-.073 2.106-.872.872-1.162 1.38-1.162 6.03-.29l5.084.944.436 3.559c.363 2.397 1.234 4.286 2.614 5.884 3.196 3.631 2.978 7.699-.653 12.784-2.615 3.849-2.833 3.995-6.465 4.212-2.47.146-3.922-.145-4.285-.726zm54.257 7.918c-2.252-2.251-2.325-2.251-5.666-1.38-2.397.654-3.559.727-3.704.145-.581-1.67-2.543-2.905-4.722-2.905-2.978-.073-3.341-.29-7.336-5.448-3.632-4.721-3.85-5.157-2.252-5.738.582-.218 1.889-2.034 2.906-4.067 1.162-2.325 2.397-3.777 3.486-3.995 3.85-.945 16.997-3.269 18.377-3.269 1.526 0 7.409 6.755 11.477 13.22l2.106 3.486-5.375 5.666c-2.978 3.196-5.738 5.883-6.247 6.174-.435.218-1.815-.654-3.05-1.889zM67.99 398.35c-2.179-1.235-1.598-9.224 1.235-17.941 2.325-6.973 2.833-7.917 6.828-11.912 4.285-4.286 4.358-4.286 6.828-3.414 2.034.726 3.34 2.179 6.682 7.7l4.213 6.827h10.75l2.906 3.705c1.597 2.033 2.905 3.922 2.905 4.285 0 .799-4.286 8.789-5.375 9.951-.581.581-3.705 1.162-8.208 1.38l-7.336.509-1.816-2.107-1.816-2.106-3.486 1.598c-3.85 1.671-12.421 2.615-14.31 1.525z" fill="#E5E5E5"/><path d="M114.26 483.988c-5.375-5.811-6.61-7.409-7.118-9.443-.364-1.67-.218-2.033 1.452-2.397 1.816-.508 1.816-.581 1.671-6.174-.145-3.123-.073-5.81.145-5.956 5.23-4.285 7.7-5.593 10.242-5.593 2.252 0 2.978.291 3.632 1.816.944 2.034 1.017 2.107 5.375.944 3.05-.726 3.486-.653 4.866.799l1.598 1.598-2.033 1.453-2.034 1.525.508 8.571.509 8.572-7.337 3.704c-4.067 2.034-7.626 3.704-7.99 3.704-.29 0-1.888-1.38-3.486-3.123zm26.513-89.415c-1.38-1.235-3.85-2.034-8.789-2.906-6.32-1.162-6.973-1.452-8.862-3.849-1.961-2.47-2.179-2.543-5.302-2.034-1.816.218-3.705.581-4.14.799-.509.145-2.397-1.671-4.286-4.068l-3.414-4.358h-4.866c-2.76-.073-5.303-.29-5.739-.581-1.09-.726-7.554-11.186-7.554-12.203 0-.508 1.017-1.307 2.18-1.743 2.687-1.162 3.268-2.179 3.994-6.9.872-6.174 2.688-7.845 4.867-4.576.799 1.234 2.76 1.961 8.28 3.123 3.923.872 8.208 2.034 9.516 2.542 2.033.872 2.76.799 7.191-1.089l4.866-2.107 4.213 4.504c3.632 3.922 4.431 4.43 5.666 3.777 2.179-1.163 3.413-.945 7.118 1.452 2.542 1.598 4.285 2.179 6.828 2.179 2.978 0 3.486.218 3.849 1.744.654 2.615-.653 5.229-4.503 9.007-4.286 4.14-6.828 10.169-5.302 12.565.799 1.308.653 1.816-1.017 3.923-1.017 1.38-2.107 2.542-2.397 2.469-.291 0-1.38-.726-2.397-1.67zm-41.185 46.705c-.654-1.163-1.453-2.107-1.744-2.107-.363 0-.58-1.162-.58-2.542 0-1.816-.654-3.269-2.252-5.085-1.962-2.251-2.325-3.196-2.397-6.755l-.073-4.067 3.269-2.034 3.268-2.034 4.286 1.235c4.213 1.162 4.358 1.162 6.973-.363l2.76-1.598 2.034 4.576c2.324 5.23 2.324 5.375.871 9.007-4.285 10.387-4.067 10.096-11.04 12.493l-4.141 1.453-1.234-2.179zm45.251-6.61c-5.375-6.755-5.157-5.884-2.978-10.75l1.888-4.358-2.615-2.397c-3.777-3.414-4.212-5.085-2.76-10.46.654-2.542 1.453-4.576 1.671-4.576.218 0 1.38 1.162 2.542 2.615 1.961 2.469 2.252 2.542 5.157 2.106 3.705-.508 4.794.436 2.833 2.615-1.235 1.308-1.235 1.598-.218 3.414.581 1.09 2.179 2.324 3.487 2.76 3.268 1.017 14.164 13.293 12.929 14.527-.727.727-17.433 8.281-18.232 8.208-.436 0-2.106-1.67-3.704-3.704zM79.83 499.459c-1.815-1.163-3.558-2.107-3.994-2.179-.581 0-3.414-4.141-4.576-6.61-.073-.291 1.743-2.615 4.14-5.23 4.721-5.23 5.884-8.498 5.884-16.416v-4.213l4.067-2.76c4.576-3.05 7.118-3.05 8.28 0 .364 1.017 1.018 1.816 1.453 1.816.436 0 1.38 1.453 2.18 3.196 1.016 2.397 2.033 3.559 3.849 4.286 2.615 1.089 4.867 3.631 4.867 5.52 0 .654 2.324 3.559 5.084 6.61 4.576 4.939 5.085 5.738 5.085 8.498 0 3.777-1.162 4.068-4.939 1.162-2.325-1.743-2.833-1.888-7.918-1.452-2.978.217-5.593.581-5.81.726-.219.218-.582 1.525-.872 2.833-.436 2.106-1.017 2.615-4.722 4.067-6.464 2.543-8.28 2.615-12.057.146z" fill="#E5E5E5"/><path d="M144.186 403.58c-1.598-1.743-1.089-3.704 2.107-7.627 3.268-4.14 3.414-4.503 2.469-6.319-1.38-2.542.509-6.973 4.867-11.331 4.867-4.794 6.465-4.867 10.314-.727l2.906 3.051 2.034-1.38c1.815-1.235 2.033-1.235 2.905-.073.872 1.235 2.47 10.387 2.47 14.527 0 1.889-.364 2.543-1.671 2.833-.872.218-3.341 1.961-5.52 3.777-3.051 2.615-4.286 3.269-5.448 2.833-2.615-.871-11.404-.29-12.566.799-1.453 1.453-3.414 1.308-4.867-.363zM14.388 572.239a111.875 111.875 0 00-1.235-2.542c-.145-.291.508-.509 1.453-.509.944-.072 2.179-.363 2.76-.726.872-.581.944-.944.218-2.179-1.526-2.397-1.09-3.341 1.888-4.721 2.76-1.235 4.867-4.14 4.068-5.521-.29-.363-1.525-.653-2.905-.653-2.76 0-5.884-2.688-6.61-5.666-.654-2.542.145-2.76 2.615-.654 1.67 1.381 3.123 1.962 5.157 1.962 2.614 0 2.978.217 3.995 2.542 1.452 3.486 2.179 11.404 1.162 13.147-.727 1.235-.872 1.162-1.598-1.017-.509-1.307-1.235-2.324-1.743-2.324-.436 0-2.252 2.397-4.068 5.447-1.743 2.978-3.414 5.448-3.705 5.448-.217 0-.871-.944-1.452-2.034zm95.588 29.926c-4.794-.508-9.298-.799-9.952-.581-.726.218-1.743.073-2.397-.29-.871-.509-.508-1.162 2.107-3.777l3.269-3.124-1.453-2.832c-1.598-3.196-1.816-2.979 4.576-4.213 2.324-.509 4.358-1.09 4.503-1.38.146-.218 0-2.107-.363-4.068-.654-3.341-.508-3.704 1.889-7.264 1.38-2.033 2.542-3.922 2.542-4.212 0-.291-1.671-.509-3.705-.509h-3.777l.509-5.811c.29-3.704.145-6.9-.436-9.007-.436-1.815-.654-3.559-.363-3.849.363-.291 3.123-.509 6.174-.436 4.794.073 5.738.363 6.828 1.671 1.598 1.961 1.67 3.341.218 4.794-1.163 1.162-1.308 3.413-.436 5.738.363.871.072 2.905-.727 5.302-1.598 4.649-1.307 5.375 3.269 8.789 1.816 1.38 3.486 2.978 3.632 3.632.218.654.581 4.067.799 7.699l.508 6.61-3.051 1.235c-3.05 1.162-3.123 1.162-2.614 4.067.508 3.414 1.598 3.269-11.549 1.816zm-57.892 28.474c-.654-1.308-.944-2.76-.726-3.124.29-.435 4.067-3.05 8.498-5.883 7.845-5.085 7.99-5.157 9.297-3.777.727.799 1.962 1.453 2.688 1.453 2.542 0 1.743 2.76-1.09 4.14-1.96.944-2.76 1.888-3.631 4.576l-1.163 3.414-5.23.508c-2.832.291-5.737.654-6.391.799-.727.218-1.526-.508-2.252-2.106z" fill="#E5E5E5"/><path d="M59.93 663.397c-.218-.871-.436-3.922-.436-6.682 0-4.794-.145-5.23-3.705-10.605-3.268-5.012-3.559-5.883-3.123-8.28.581-3.269 2.18-3.995 9.007-3.995 5.448 0 5.52-.073 7.263-4.722.654-1.598 1.816-3.268 2.688-3.704 3.196-1.525 3.922-2.688 3.704-5.303-.145-2.251-.508-2.687-2.179-2.832-1.96-.291-2.978-1.38-6.246-6.828l-1.598-2.615 6.246-3.414 6.247-3.486 3.922 3.922c4.286 4.213 4.576 4.794 2.688 5.52-3.56 1.235-3.85 2.107-3.341 10.387.508 8.716.58 8.353-4.94 15.617l-2.76 3.704-.218 11.549-.218 11.622-3.631.799c-1.962.509-4.794.872-6.247.944-2.18.073-2.76-.218-3.123-1.598z" fill="#E5E5E5"/><path d="M48.89 624.755c-.29-.726.145-1.888 1.162-2.905 1.453-1.526 1.598-2.252 1.163-5.811l-.509-3.995h5.375c6.537 0 9.733.581 10.242 1.816.29.799-2.688 2.905-15.326 11.113-1.453.872-1.671.872-2.107-.218zm-15.836-18.739c-.727-2.47-1.889-5.23-2.76-6.102l-1.453-1.598 3.632-1.816 3.631-1.888 3.923 2.179c2.106 1.162 6.029 3.268 8.716 4.721l4.867 2.542-1.453 2.47c-1.453 2.397-1.453 2.47-5.666 2.034-2.905-.218-5.375 0-7.772.799-1.888.654-3.632 1.235-3.922 1.235-.29 0-1.017-2.034-1.743-4.576zm50.918-1.454c-3.559-3.269-4.43-4.649-5.665-8.498-.8-2.543-2.542-7.046-3.922-10.024-1.38-2.978-2.76-6.755-2.979-8.426-.508-3.123-4.72-11.404-6.973-13.655-.726-.799-2.324-1.308-3.777-1.308-2.033 0-2.542-.29-2.76-1.67-.145-1.308-.58-1.598-2.47-1.381-1.307.073-2.614-.29-3.05-.871-.726-.799-.218-1.09 2.905-1.526 2.107-.29 4.431-1.016 5.085-1.597 1.09-1.017 1.38-.8 3.123 1.961 1.09 1.67 2.325 4.067 2.833 5.375 1.67 4.503 2.252 5.012 6.392 5.302 3.922.363 3.995.291 4.94-1.961.943-2.252 1.016-2.324 4.357-1.816l3.487.436 2.687-4.358c1.453-2.47 2.47-4.794 2.18-5.157-.218-.436-1.744-.727-3.342-.727-2.397 0-2.905-.218-2.687-1.307.218-1.017 1.162-1.308 5.665-1.453 4.213-.218 5.811-.581 6.973-1.671 1.67-1.598 2.47-1.234 2.47 1.09s1.38 3.414 3.123 2.47c2.47-1.308 3.051.363 3.051 9.079v8.135l2.76.218c1.453.145 2.688.509 2.688.872s-.799 1.816-1.816 3.268c-1.163 1.816-1.598 3.269-1.38 4.576.944 4.794 1.016 4.794-4.068 5.739-2.542.581-5.012 1.307-5.375 1.67-.436.363-.145 1.816.654 3.632l1.38 2.978-3.487 3.341c-3.486 3.414-3.486 3.414-1.961 4.649 2.034 1.671 1.961 2.179-.799 4.068-4.503 2.978-5.593 2.76-10.242-1.453zm-58.108-8.571c-1.67-1.307-10.314-15.035-9.805-15.544.145-.145 1.888-1.017 3.85-1.816l3.559-1.525 2.251 2.687 2.325 2.688 2.396-1.235c3.27-1.598 3.85-1.525 5.23.872 1.163 1.888 1.163 2.034 0 2.76-1.162.726-1.162 1.017 0 4.068l1.163 3.341-2.18.871c-1.162.509-3.268 1.671-4.576 2.615-2.397 1.598-2.47 1.598-4.213.218z" fill="#E5E5E5"/><path d="M26.445 577.542c-1.09-1.38-2.325-2.543-2.833-2.543-.436 0-2.688.945-4.94 2.034-2.323 1.09-4.43 1.816-4.72 1.525-.291-.29-1.744-.871-3.197-1.307-3.123-1.017-3.559-2.47-3.559-12.566 0-5.157-.363-7.409-2.251-12.711-2.906-8.281-4.14-12.711-4.722-17.07-.435-3.123-.29-3.486.945-3.486.726 0 1.96.944 2.615 2.179 1.67 2.76 2.76 2.688 6.755-.145 2.978-2.179 3.413-2.252 7.844-1.816 5.52.508 6.102.072 6.392-5.012.218-3.922 0-3.777 6.174-2.833 2.107.363 2.325.581 1.961 2.397-.58 2.76 1.308 4.649 3.632 3.777 1.38-.508 2.034-.29 3.123.945 3.342 3.849 3.342 3.849 2.034 7.772l-1.234 3.631 2.687 3.995c2.106 3.124 2.615 4.576 2.397 6.683-.218 2.687-.29 2.76-3.269 2.76-2.76 0-3.268.29-4.939 2.687-2.106 3.124-2.179 3.923-.654 7.845 1.163 2.76 1.09 2.905-.363 4.14-.799.727-1.96 2.615-2.47 4.213-.653 1.816-1.815 3.341-3.268 4.213l-2.179 1.307-1.961-2.614zm-6.174-6.029l3.123-4.867 1.017 2.325c1.307 3.196 2.688 2.978 4.14-.727.945-2.615 1.017-4.067.509-8.571-1.162-8.934-2.543-10.823-7.918-10.823-1.017 0-2.76-.871-3.922-1.961-1.743-1.67-2.252-1.816-3.85-1.089-2.47 1.162-2.324 4.067.436 7.772 1.526 1.961 2.906 2.978 4.431 3.268 3.487.509 3.196 1.816-.944 3.487-3.777 1.598-3.923 1.888-2.542 5.302.435.872 0 1.235-1.671 1.598-1.38.291-2.252.872-2.252 1.598 0 2.034 3.705 7.627 5.085 7.627.799 0 2.47-1.816 4.358-4.939zm21.789 48.593c-4.793-1.235-5.52-1.961-6.827-6.319-.363-1.38 0-1.671 3.341-2.47 2.107-.436 5.303-.726 7.119-.654l3.268.291.218 4.213c.218 3.85-.581 6.464-1.961 6.247-.218-.073-2.542-.654-5.157-1.308z" fill="#E5E5E5"/><path d="M54.626 609.937c-2.034-.218-2.034-.581-.218-3.341 1.96-3.051 1.888-3.56-1.235-5.012-1.525-.727-5.375-2.76-8.644-4.576-5.447-3.124-5.883-3.559-6.537-6.538-.654-2.76-.581-3.123.509-3.123 2.324 0 2.179-1.38-.364-5.23-1.452-2.106-2.614-4.43-2.614-5.157 0-1.816 1.307-4.285 3.05-5.665 1.453-1.163 1.453-1.235.218-5.23-1.235-3.85-1.235-4.14-.073-5.956.872-1.308 1.744-1.816 3.196-1.744 1.09.073 2.76-.217 3.705-.726 1.525-.871 1.961-.726 4.721 2.034 2.18 2.106 3.487 2.833 4.358 2.542.872-.363 1.38-.072 1.67 1.017.291 1.308.945 1.598 3.415 1.598 2.833 0 3.123.145 5.81 4.431 1.89 2.833 3.197 6.029 3.778 8.861.436 2.47 2.034 6.828 3.414 9.661 3.34 6.755 4.43 10.532 3.196 11.622-.436.435-3.124 2.033-5.957 3.559-6.537 3.486-7.045 3.922-6.61 5.738.364 1.38.073 1.525-3.413 1.525-2.107 0-4.504-.145-5.375-.29zm17.58-43.508c-2.688-.364-3.995-1.38-3.995-3.196 0-1.889-4.94-10.75-6.247-11.259-.58-.218-1.743.436-2.542 1.526-1.453 1.815-1.889 1.888-6.32 1.743l-4.866-.218-.363-2.906c-.218-1.598-1.525-4.503-2.833-6.464l-2.397-3.559 1.235-3.777 1.307-3.85-2.687-3.341c-2.833-3.414-3.196-3.632-6.101-3.414-1.308.145-1.671-.145-1.453-1.162.218-1.09.944-1.308 3.632-1.308 1.888 0 3.85-.436 4.358-1.017 1.017-1.017.072-2.033-4.867-5.665-2.106-1.526-2.106-1.598-.799-3.051 1.017-1.162 2.252-1.525 4.576-1.525 2.833 0 3.632.436 7.627 4.067l4.43 4.141 2.252-2.543c1.235-1.38 3.414-4.14 4.794-6.028 1.889-2.615 3.269-3.778 5.448-4.359 4.649-1.38 6.029-2.397 6.9-5.302 1.38-4.14 1.816-4.286 5.957-1.671 3.196 1.962 4.213 2.252 6.392 1.889 5.447-1.09 5.302-1.162 6.464 3.85 1.235 5.084 1.308 4.939-3.922 8.571-1.453 1.017-1.453 1.017.218 4.14 1.67 3.123 1.67 3.196.436 5.811-1.235 2.542-1.453 2.687-4.794 2.687-3.632 0-7.845 1.598-7.845 2.906 0 .435.508 1.816 1.162 2.978.944 1.888 1.017 2.832.363 5.447-1.09 4.141.145 8.499 2.833 10.46 1.525 1.089 1.889 1.816 1.598 3.559-.29 2.179-.218 2.252 2.76 2.252h2.978l-1.67 2.978c-1.671 2.978-1.671 2.978-5.085 2.542-3.269-.363-3.559-.29-4.576 1.743-1.307 2.47-1.598 2.615-4.358 2.325z" fill="#E5E5E5"/><path d="M122.396 552.192c-1.09-2.542-2.397-3.051-9.516-3.559-2.397-.218-9.37 1.017-10.314 1.816-.944.799-1.162.436-1.961-3.269-.581-2.615-1.453-2.469-4.14.581-2.18 2.397-2.47 2.542-7.191 2.542-6.61 0-8.353-.798-9.443-4.067-.654-2.034-.654-3.341 0-5.738.726-2.615.654-3.487-.363-5.448-1.67-3.269-.8-3.85 6.029-3.995 2.978 0 3.196-.218 5.084-3.559l1.889-3.487-1.526-2.76-1.598-2.76 2.978-2.47 3.051-2.542-.944-4.285c-.509-2.397-1.09-4.94-1.235-5.739-.29-1.089.29-1.815 2.324-2.905 2.615-1.453 3.414-2.324 4.213-4.939.291-1.017 1.235-1.235 4.722-1.235 2.396 0 4.576.363 4.866.799.218.363 1.453 1.38 2.688 2.106 1.162.727 3.05 2.906 4.067 4.794 1.816 3.342 2.107 3.56 7.191 5.012 2.906.799 5.593 1.961 6.029 2.543.799 1.38.872 6.246 0 9.152-.872 2.978.073 4.358 3.269 4.939 1.888.363 2.978 1.162 4.067 3.051.872 1.452 2.542 3.05 3.705 3.559 1.525.581 2.469 1.743 3.123 3.631.508 1.526.799 3.051.581 3.342-.145.29-3.051 2.034-6.392 3.849-6.973 3.777-7.481 4.286-7.845 7.555-.145 1.888-.799 2.687-3.268 4.14l-3.051 1.816-1.089-2.47zM257.063 395.59c-1.017-.363-2.76-.654-3.85-.654-1.307-.073-2.687-.799-3.559-1.961-1.307-1.598-1.816-1.816-4.285-1.38l-2.833.436v-2.833c0-2.252-.291-2.978-1.38-3.269-.799-.218-2.107-1.743-2.906-3.341-1.525-2.978-2.978-3.632-5.084-2.324-.509.29-1.816.363-2.906.072-1.525-.363-1.961-1.017-2.251-3.341-.291-2.324-.654-2.833-1.816-2.687-.799.145-2.906.435-4.722.653-3.123.436-3.413.291-5.229-2.106-1.235-1.598-3.923-3.414-7.409-5.085-4.213-2.033-5.593-3.05-5.956-4.503-.291-1.09-1.09-2.034-2.179-2.252-2.034-.508-11.186-10.023-11.186-11.621 0-.582.799-3.051 1.816-5.375 1.017-2.397 1.816-4.794 1.816-5.448 0-.581 1.307-1.743 2.832-2.542 2.543-1.235 2.978-1.889 3.632-5.158.436-2.106 1.598-4.721 2.615-5.883 1.671-2.034 1.743-2.179.726-5.52-1.816-5.956-1.452-7.845 2.47-13.075 1.525-1.961 2.252-2.324 4.867-2.324 2.396 0 3.123.29 3.413 1.38.291 1.307 4.431 4.431 5.739 4.431.799 0 5.665-4.431 6.464-5.884.436-.871.363-2.397-.218-4.503-1.017-3.85-.145-9.08 1.744-10.242 1.961-1.235 2.687.073 3.413 6.683l.654 6.028 4.649 4.867c6.101 6.392 7.263 6.537 9.225 1.09 3.631-10.097 4.939-11.041 15.689-11.041 9.37.073 9.588.145 12.057 6.101 2.978 6.901 3.705 7.554 6.465 5.956l2.106-1.307 5.158 9.806 5.157 9.806 4.503-.436c3.269-.291 4.867-.073 5.884.654 1.234.944 1.162 1.234-1.526 6.755l-2.905 5.811 1.598 5.229c1.38 4.358 1.452 5.448.726 6.538-.872 1.089-1.307 1.162-4.285.363-1.816-.509-4.649-.872-6.32-.872-2.469 0-3.414-.508-6.464-3.486-1.961-1.889-5.666-4.576-8.281-5.957-4.431-2.324-4.866-2.397-7.626-1.598-1.671.509-2.979 1.381-2.979 1.889s1.017 3.123 2.18 5.666c1.888 4.067 2.106 5.011 1.452 6.827-.508 1.162-.653 3.559-.436 5.448.509 3.704.654 3.559-3.995 4.503-1.525.364-2.106 1.235-3.559 5.957l-1.743 5.52 2.179 1.743c2.906 2.397 4.068 2.252 6.755-1.089 1.961-2.47 2.76-2.906 5.085-2.906 2.179 0 3.05.363 3.922 1.671 1.09 1.67.944 1.888-5.012 7.844-5.302 5.158-6.101 6.392-5.811 7.99.799 4.068-2.905 5.956-8.28 4.286z" fill="#E5E5E5"/><path d="M372.046 346.996c-13.293-5.883-18.014-8.353-27.384-14.6-8.571-5.593-11.767-7.336-13.002-7.045-1.453.363-22.008.436-33.412.145-2.688-.073-5.157-.436-5.521-.799-.363-.363-2.687-4.576-5.157-9.297-3.704-6.901-4.358-8.717-3.559-9.298.581-.363 2.107-1.307 3.487-2.179l2.397-1.525-.436-5.012-.509-4.939 3.124-1.38c4.285-1.816 10.75-8.934 10.75-11.767 0-1.09.29-2.252.654-2.47 1.162-.726 4.576 2.688 5.956 5.956 1.743 4.14 1.743 6.901 0 8.499-1.38 1.234-1.598 1.234-5.157 0-3.56-1.308-3.632-1.308-6.901.29-1.816.872-3.486 2.107-3.777 2.76-.436 1.235 1.017 12.566 1.816 13.874.581.871 7.917 3.849 9.588 3.849.654 0 2.905-1.815 5.084-3.995l3.923-3.994h20.556c11.403 0 20.628.29 20.846.653.291.363-1.38 1.671-3.559 2.906-2.252 1.234-4.213 2.76-4.504 3.414-.435 1.162 4.286 6.537 6.683 7.481.944.363 2.905.073 5.375-.799 4.939-1.671 6.392-1.671 10.968.145 2.978 1.162 4.576 1.308 9.152.945l5.52-.436-.508 3.341c-.508 3.196-.436 3.414 1.525 4.213 3.487 1.453 7.046 1.017 10.46-1.235l3.123-2.106-.436-4.867c-.363-3.85-.145-5.157.727-6.029 1.162-1.235 1.017-1.235 12.348 5.23 1.743 1.017 3.995 3.196 5.375 5.375l2.324 3.632-1.525 2.106c-1.961 2.615-1.961 2.325.363 7.772 1.017 2.543 1.671 4.794 1.38 5.085-.29.29-1.525.072-2.833-.436-2.251-.872-2.397-.799-5.012 2.106-1.888 2.107-3.631 3.196-5.738 3.705-1.67.363-4.358 1.816-6.029 3.123-1.815 1.526-4.648 2.906-7.408 3.632-2.47.654-4.576 1.089-4.722 1.089-.145 0-7.554-3.268-16.415-7.118zm10.603-65.444c-3.124-2.397-5.739-5.085-5.956-5.956-.218-.945-1.09-5.303-1.889-9.734-1.38-7.045-1.38-8.425-.581-10.895.799-2.324 1.525-3.051 3.777-3.777 1.671-.581 5.375-3.414 9.661-7.482 6.101-5.738 7.19-6.464 8.934-6.101 1.743.363 2.324-.073 5.375-3.995 1.816-2.397 4.866-5.375 6.755-6.682 1.888-1.308 6.537-4.649 10.314-7.482 3.777-2.905 7.772-5.738 8.789-6.464 2.252-1.453 16.924-3.777 30.725-4.867 5.738-.436 12.421-1.453 15.399-2.252 2.905-.871 5.738-1.307 6.392-1.089 2.033.799 1.307 4.576-1.38 7.263-2.761 2.76-2.761 2.76-18.958 4.504-11.767 1.235-15.109 2.469-24.842 8.934-2.251 1.453-6.101 3.486-8.425 4.431-2.325 1.017-6.465 3.559-9.08 5.665-2.615 2.179-7.409 5.884-10.605 8.281-6.101 4.503-13.728 12.638-16.851 17.941-1.816 3.05-1.816 3.414-1.453 11.985.218 4.866.509 9.442.654 10.241.436 2.47-1.162 1.889-6.755-2.469zm97.043-150.719c-1.38-3.559 1.089-6.247 4.358-4.794 2.106 1.017 2.179 1.598.218 3.995-1.671 2.179-3.923 2.542-4.576.799zm12.056 0c-1.961-.872-2.252-1.308-1.598-2.397 1.017-1.889 7.917-3.632 8.789-2.179 1.307 2.034.654 3.632-1.889 4.649-1.38.581-2.614 1.016-2.687 1.016-.145-.072-1.308-.508-2.615-1.089zm-21.209-1.38c0-3.123 5.012-3.341 5.085-.218 0 .581-3.124 2.034-4.431 2.034-.363 0-.654-.799-.654-1.816zm-.654-8.862c-1.453-5.157-.872-5.52 5.302-3.414 3.196 1.09 3.414 1.308 3.196 3.414-.218 2.252-.363 2.324-3.995 2.542l-3.777.218-.726-2.76zm-27.891-2.397c-1.235-1.38-1.235-1.452 1.162-2.397 8.716-3.631 13.075-5.012 13.728-4.358.581.654.146 6.029-.508 6.029-.145 0-2.76.436-5.884 1.089-7.118 1.381-6.973 1.381-8.498-.363zm33.266-4.648l-2.179-.945 3.995-1.235c3.414-1.016 4.068-1.089 5.012-.145.872.872.872 1.235.073 2.179-1.09 1.38-3.923 1.38-6.901.146zm-28.982-4.068c-.218-.436-1.598-.726-2.978-.726-3.05 0-3.196-1.38-.363-3.487l2.106-1.525 4.068 1.598c2.252.871 3.995 1.816 3.995 2.179 0 .581-4.358 2.687-5.666 2.687-.363 0-.944-.363-1.162-.726zM13.952 308.645c-1.162-1.525-4.358-6.029-7.119-9.951-5.375-7.772-5.375-8.426-.218-8.426 2.252 0 2.906.363 4.14 2.397.8 1.307 2.18 2.978 2.979 3.777 1.453 1.308 1.525 1.308 3.632-.218 1.307-1.017 2.251-1.307 2.542-.871.799 1.234 3.995 11.839 3.995 13.219 0 1.526-.363 1.744-4.431 2.397-3.196.436-3.414.363-5.52-2.324zm133.577 40.312c-.509-.508-.872-1.162-.872-1.452 0-.364-1.38-3.56-3.05-7.119l-2.978-6.537h-2.833c-2.542 0-2.833-.218-2.397-1.453.29-.944-.145-2.469-1.09-3.995-1.598-2.614-2.76-2.978-6.537-1.888-2.833.799-7.845-.436-9.878-2.47-1.744-1.743-1.889-1.816-3.923-.726-1.162.581-2.251 1.089-2.469 1.089-.146 0-.509-1.888-.727-4.212-.29-2.252-1.162-6.392-2.034-9.08-1.888-5.665-1.743-5.883 3.487-6.682 2.324-.364 3.995-.073 6.755 1.089 3.85 1.671 4.504 2.688 5.593 8.862.436 2.542.581 2.687 4.213 3.123 2.034.218 4.867.363 6.247.218 2.251-.218 2.687-.654 4.43-4.213 1.09-2.252 1.816-4.285 1.598-4.576-.145-.291-2.324-1.671-4.939-3.051-3.414-1.961-4.794-3.196-5.375-4.866-1.162-3.414-1.017-4.068 1.671-6.828 2.179-2.324 2.833-2.542 5.665-2.324 3.051.218 3.196.363 5.23 4.358 1.162 2.324 4.068 8.643 6.537 14.164l4.431 10.023 4.213.582c3.922.581 4.358.508 6.101-1.09l1.816-1.671 1.743 2.179c.945 1.163 2.761 3.487 3.923 5.158l2.179 3.05-2.615.872c-1.453.508-5.012 2.978-7.917 5.52-4.213 3.705-5.375 5.157-5.593 6.973-.146 1.889-.945 2.688-4.576 5.012-5.012 3.123-4.867 3.051-6.029 1.961z" fill="#E5E5E5"/><path d="M190.31 332.832c-2.107-2.251-2.906-2.542-7.627-2.978l-5.302-.508-5.012-6.828c-2.76-3.704-5.448-6.828-5.884-6.828-.508 0-1.67.799-2.542 1.816-1.525 1.744-3.704 2.179-6.828 1.38-1.235-.363-2.905-3.341-7.118-12.929-3.051-6.828-5.52-12.856-5.52-13.365 0-.653 1.452-.871 4.939-.871 5.956 0 24.841-3.342 26.003-4.576.509-.509 1.38-4.286 2.034-8.499.654-4.213 1.453-7.844 1.743-8.208.364-.29 2.034-.944 3.85-1.452 3.051-.872 3.414-1.308 7.191-8.063 3.632-6.464 4.358-7.336 8.353-9.66 5.593-3.269 7.118-4.722 10.678-9.879 1.525-2.252 3.123-4.14 3.486-4.14.436 0 2.397 1.162 4.431 2.615 3.414 2.469 3.632 2.833 3.196 4.939-1.09 4.576-.073 6.973 2.978 6.973 1.961 0 2.034.363 3.269 9.007l.871 6.537-2.034 1.453c-4.285 3.05-7.481 6.319-11.621 11.767l-4.286 5.52 1.38 6.61c.727 3.632 1.453 7.191 1.671 7.917.29 1.09-.145 1.308-2.978 1.308-3.051 0-3.414.218-6.247 3.849-2.833 3.632-2.978 4.141-2.905 8.571.072 2.543.29 5.448.581 6.465.436 1.307.145 2.324-1.017 3.704-.944 1.09-1.889 3.487-2.107 5.303-.435 2.687-.944 3.559-2.614 4.431-1.163.581-2.252 1.089-2.325 1.089-.145 0-1.38-1.162-2.687-2.47zm135.394 92.684c-7.409-2.978-10.823-3.268-19.394-1.67-5.23.944-5.956.944-10.532-.364-4.721-1.307-5.012-1.525-6.828-5.012l-1.816-3.631-5.447-.509c-7.555-.653-7.918-.508-7.918 3.85 0 5.157-1.525 5.593-11.04 3.196-7.772-1.889-8.426-1.816-11.404 1.38-1.017 1.017-2.179 1.889-2.615 1.889-.872 0-3.269-7.191-3.269-9.806 0-.727 1.09-2.543 2.47-3.995 1.889-2.107 2.76-4.14 3.777-8.353l1.308-5.593 2.614.436c7.99 1.525 8.426 1.452 10.387-1.163 1.235-1.598 1.744-3.05 1.526-4.213-.291-1.525.653-2.905 5.883-7.989 3.414-3.414 6.174-6.465 6.174-6.756 0-.363-.871-1.743-1.961-3.123-1.816-2.179-2.397-2.47-5.448-2.47-3.05 0-3.559.218-5.811 2.979-2.251 2.687-2.687 2.905-4.067 2.179-1.889-1.017-1.889-1.453-.218-6.247 1.162-3.414 1.525-3.704 4.503-4.431l3.196-.799-.218-4.358c-.145-2.324.146-5.23.582-6.392.653-1.743.435-2.76-1.453-6.755-1.743-3.704-2.034-4.939-1.308-5.375 1.671-1.017 3.342-.654 7.264 1.671 6.029 3.559 7.917 5.011 8.644 6.9.508 1.453 1.089 1.743 3.849 1.743 1.744 0 5.303.654 7.845 1.453 2.542.726 4.649 1.38 4.721 1.453.073 0 .945-1.163 1.961-2.615l1.744-2.615-1.744-5.085-1.67-5.084 1.888-3.777c1.017-2.034 2.615-4.867 3.559-6.319l1.671-2.688 13.365.145 13.365.073 11.186 7.336c7.917 5.157 14.091 8.571 20.992 11.477 5.375 2.324 11.113 4.794 12.711 5.447 10.532 4.722 9.297 4.504 14.89 2.978 3.414-.871 5.956-2.106 7.99-3.849 1.889-1.598 3.995-2.688 5.811-2.906 2.034-.29 3.414-1.089 5.157-2.978 3.341-3.85 6.9-3.268 3.922.654-1.525 2.106-1.307 3.85.799 5.665l1.816 1.598-2.034 2.906c-1.089 1.67-3.486 4.358-5.302 5.956-3.051 2.76-3.922 3.123-10.169 4.213-6.828 1.162-10.387 2.76-13.51 6.247-.654.726-3.487 2.033-6.174 2.832-2.76.799-6.973 2.833-9.37 4.504-3.995 2.76-4.504 2.978-5.157 1.816-1.162-2.034-2.252-1.526-7.119 3.341-3.922 3.995-4.576 5.084-4.866 7.772-.145 1.743-.363 3.196-.436 3.196-.145.072-2.179 1.67-4.649 3.559-4.285 3.269-4.576 3.704-7.844 11.912-5.23 12.857-7.119 16.489-8.789 16.634-.799.072-4.358-1.017-7.99-2.47z" fill="#E5E5E5"/><path d="M255.102 284.167c-4.576-1.889-6.029-3.196-10.097-8.862-4.14-5.811-7.263-14.455-8.788-24.478-1.163-7.264-1.453-8.208-2.833-8.353-1.09-.146-2.397.799-4.576 3.414-2.179 2.542-3.632 3.704-4.867 3.704-2.324 0-2.76-1.307-1.38-4.576 1.017-2.542 1.017-2.615-.944-4.286-1.09-.944-3.269-2.542-4.722-3.486-2.905-1.961-3.123-2.615-1.815-5.448.871-1.961 1.089-2.106 7.481-3.341 5.811-1.09 7.336-2.179 7.917-5.52 1.816-10.46 2.688-13.147 4.649-14.019 7.118-3.269 9.515-3.704 18.232-2.905 12.929 1.162 13.147 1.234 13.147 3.268 0 1.526-.364 1.816-2.179 1.816-1.235 0-2.397.436-2.615 1.017-.727 1.816 1.816 9.152 5.593 16.416 3.413 6.464 3.704 7.408 4.721 15.979.581 4.94 1.743 10.968 2.542 13.365 1.671 5.158 1.671 8.644.073 18.232l-1.235 7.264-4.358 1.162c-5.811 1.67-9.443 1.525-13.946-.363zm-109.534 76.848c-2.179-1.38-3.559-1.744-5.448-1.453-2.324.363-2.905 0-6.682-3.777l-4.213-4.14-3.051 1.235c-1.743.653-4.14 1.598-5.375 2.106-1.888.726-2.687.726-4.721-.291-1.38-.581-4.939-1.525-7.917-2.033-4.358-.727-5.956-1.308-7.772-3.051l-2.325-2.252 4.794-5.375 4.794-5.302-.871-2.833c-.436-1.453-.799-3.559-.799-4.576 0-1.598.363-1.889 2.76-2.179 1.453-.145 3.704-.726 4.939-1.308 2.034-.799 2.47-.799 3.85.582 1.961 1.743 6.973 2.687 11.113 1.961 3.487-.581 4.867.799 4.939 4.939 0 2.687.073 2.76 2.906 2.76h2.905l2.978 6.319c3.777 8.208 3.995 9.225 2.47 11.622-1.235 1.816-1.235 1.961.145 3.051.872.653 2.034 1.452 2.76 1.888.727.436 1.162 1.38 1.017 2.325l-.29 1.525-2.906-1.743z" fill="#E5E5E5"/><path d="M82.156 360.143c-3.196-6.246-8.788-21.209-8.353-22.444.654-1.889 9.66-17.069 10.968-18.595.581-.653 2.107-1.235 3.342-1.235 3.05 0 4.866-1.38 7.626-5.738 2.252-3.486 4.94-5.157 8.063-5.157 1.743 0 4.213 6.61 4.794 12.857l.508 5.302h-1.816c-2.687 0-3.704 1.671-3.268 5.23.218 1.743.581 3.777.871 4.576.291 1.017-.508 2.397-2.905 5.084-8.862 9.588-9.66 10.75-10.46 15.181-.435 2.397-.799 4.431-.799 4.576 0 .581-4.794 3.124-5.883 3.124-.654 0-1.889-1.235-2.688-2.761zm44.672-45.034c-.509-.799-1.308-5.956-1.017-5.956.218 0 1.525.509 3.051 1.09 3.413 1.452 5.011.944 4.576-1.453-.218-1.017-.073-1.816.29-1.816.509 0 3.196 1.453 4.867 2.688.145.072-.291 1.525-1.017 3.123l-1.308 2.905h-4.576c-2.469 0-4.721-.29-4.866-.581zm90.357 91.085c-4.503-1.452-4.939-1.816-8.571-6.973-3.123-4.43-4.576-5.811-7.99-7.554-3.995-2.034-4.43-2.106-11.113-1.598-4.867.363-7.554.872-9.297 1.889-1.38.799-2.688 1.307-2.833 1.162-.218-.218-.799-3.487-1.308-7.409-.799-5.375-1.38-7.409-2.614-8.789-1.816-1.888-2.906-2.106-5.085-.799-1.307.799-1.743.654-3.704-1.888-1.235-1.526-3.051-3.051-3.995-3.414-1.308-.509-1.671-1.162-1.671-3.051 0-3.196-1.089-4.14-4.867-4.14-3.05 0-3.123-.073-3.123-2.397 0-1.743-.581-2.833-2.324-4.286-2.325-1.888-2.397-1.961-.944-3.486.726-.872 3.341-2.76 5.81-4.14 6.029-3.632 6.901-4.504 6.901-6.828 0-1.525 1.017-2.906 4.576-6.029 2.542-2.179 5.448-4.358 6.392-4.721 1.162-.436 4.576-.436 8.643-.145 6.61.581 6.901.653 9.225 3.195l2.397 2.615-2.179 5.884c-1.162 3.268-2.179 6.319-2.179 6.755 0 1.235 11.041 12.856 12.203 12.856.508 0 1.235.799 1.598 1.744.436 1.235 2.469 2.687 6.319 4.648 3.704 1.889 6.465 3.85 7.99 5.739l2.324 2.905 3.705-.726c4.14-.799 5.084-.291 5.084 2.905 0 1.961 2.47 2.76 6.465 2.107 2.615-.436 2.905-.291 3.704 1.815.509 1.163 1.743 2.688 2.688 3.342 1.67 1.089 2.106 3.268 1.235 5.593-.218.581-2.397 1.961-4.722 3.05-4.431 1.962-5.23 3.414-3.05 5.012 1.016.727 1.162 1.308.508 2.978-.654 1.889-.944 2.034-3.777 1.889-1.889-.145-3.632.145-4.649.871-1.961 1.381-1.961 1.381-7.772-.581zm733.259 162.85c-4.068-3.705-11.332-10.315-16.126-14.746-16.415-15.108-15.834-14.745-20.701-15.253-3.559-.436-4.721-.291-6.319.726-1.598 1.09-2.906 1.163-8.644.727-7.336-.509-9.007 0-16.125 4.866-3.777 2.615-5.084 2.397-9.588-1.598l-3.268-2.832 1.307-2.18c1.743-2.905 1.598-3.922-.799-5.738-1.525-1.089-2.397-2.76-3.341-6.101-2.324-8.426-2.688-9.298-3.995-9.298-.726 0-2.034.799-2.978 1.816-.944.945-1.889 1.816-2.179 1.816-.218 0-1.453-1.525-2.76-3.268-1.235-1.816-2.688-3.269-3.196-3.269-.436 0-1.744.872-2.906 1.889-2.542 2.469-4.285 1.452-3.704-2.179.363-2.18.145-2.47-3.341-4.359-2.034-1.089-3.705-2.397-3.705-2.832 0-.509 1.671-2.034 3.705-3.414 3.486-2.325 3.849-2.397 6.682-1.744 4.721 1.235 14.019.582 19.466-1.307l4.867-1.598 3.559 2.324c4.358 2.761 5.375 2.833 10.823.436 3.341-1.525 5.012-1.816 7.627-1.525 3.196.363 3.777.145 9.442-3.632 3.705-2.47 8.135-4.721 11.113-5.593 3.196-1.017 5.303-2.106 5.811-2.978 2.833-5.23 4.358-6.9 6.755-7.336 1.526-.291 4.94-2.47 8.644-5.375 8.063-6.392 9.297-6.973 11.767-6.102 2.833.945 2.978 4.504.291 11.259-1.962 5.012-4.504 16.851-4.504 21.21 0 2.324.436 2.324 6.392.508 2.542-.799 5.012-1.453 5.52-1.453.509 0 1.671 1.308 2.543 2.906.871 1.598 1.961 2.905 2.397 2.905.435 0 3.849-2.324 7.626-5.084 6.247-4.794 6.756-5.303 6.756-7.627 0-2.252.217-2.542 1.743-2.542 1.235 0 2.833-1.163 5.084-3.777l3.269-3.705 2.252 5.012c1.307 2.76 2.76 6.029 3.341 7.264l.944 2.324-5.738 2.324c-3.196 1.235-5.811 2.688-5.811 3.124 0 .435 1.017 1.816 2.252 3.123l2.251 2.324-1.815 1.598c-1.163 1.017-2.034 2.76-2.325 4.576-.29 1.671-1.525 5.012-2.687 7.482-2.034 4.285-2.179 4.939-1.889 12.348.218 7.191.436 8.208 2.252 10.968 1.888 2.978 2.106 3.123 5.811 3.123 3.631 0 3.995.145 7.626 3.85 2.107 2.106 3.778 4.285 3.778 4.794 0 .581-.654 3.559-1.526 6.682-1.162 4.286-1.888 5.811-2.978 6.102-.799.29-4.503.072-8.135-.436-6.247-.799-6.828-.799-10.242.654-3.341 1.452-13.074 4.503-14.382 4.503-.29 0-3.849-3.051-7.989-6.682zm56.076 14.091c-.66-.291-2.91-2.615-5.09-5.157-6.969-8.208-6.533-7.264-5.444-11.985.581-2.252 1.09-4.286 1.235-4.358 1.162-.944 15.179-8.426 15.839-8.426.43 0 1.96.509 3.34 1.235 2.54 1.162 2.9 1.162 9.15-.436 3.56-.944 6.68-1.598 6.9-1.38.14.218-1.67 3.341-4.07 7.046-2.4 3.631-5.3 8.498-6.46 10.75-2.4 4.794-9.74 12.275-12.42 12.856-1.02.146-2.33.146-2.98-.145zm85.3-277.762c-2.59-10.052.13.076-1.33-6.389-1.52-6.537-1.24-7.046-4.44-9.878l-3.34-2.979 1.24-5.229c1.52-6.247 2.1-3.995-7.77-32.033l-7.34-20.701-.51-9.297c-.65-10.823-.94-11.549-7.77-16.416a169.066 169.066 0 01-6.54-4.794l-1.67-1.452 1.82-3.487c2.61-4.867 2.03-6.319-2.54-6.319h-3.56l-3.34 6.174c-2.4 4.431-3.27 6.682-2.98 7.844.29.872 2.61 3.342 5.15 5.448 2.91 2.324 4.73 4.431 4.73 5.23 0 .799-.22 1.453-.51 1.453-.29 0-2.84-2.252-5.67-5.012-5.52-5.375-8.42-6.901-11.11-5.666-2.04.872-2.4.509-4.51-4.794-1.45-3.85-1.81-4.14-3.92-4.14-3.05-.073-3.48-.436-6.24-5.302-2.04-3.705-2.62-4.213-5.16-4.649-2.47-.363-2.83-.654-2.83-2.397 0-2.397 2.32-5.593 8.2-11.186 2.47-2.397 5.52-6.029 6.69-7.99 1.81-3.051 2.54-3.704 4.57-3.922 1.82-.146 2.76-.727 3.63-2.325 1.02-1.743 2.11-2.251 6.11-3.196 7.26-1.67 7.19-1.67 10.31 3.995 1.52 2.833 3.2 5.303 3.78 5.521.58.218 2.61-.945 4.5-2.543 3.34-2.76 3.85-2.978 8.86-3.123l5.3-.218 1.31-4.721c.73-2.615 1.38-5.738 1.38-6.973 0-1.235.8-4.286 1.82-6.828 1.01-2.542 1.81-5.738 1.81-7.046v-2.397h4.22c2.25 0 4.5.218 4.94.509.43.29 2.97 8.208 5.66 17.65 3.2 11.332 5.52 18.232 6.97 20.556 1.24 1.889 2.18 3.777 2.18 4.068 0 .29-2.9 1.453-6.46 2.469-3.56 1.017-6.76 2.325-7.12 2.761-.44.508-1.09 4.576-1.53 9.079-.65 6.828-.65 8.498.22 10.678 1.67 3.995 1.38 4.285-2.25 2.324-6.39-3.559-7.12-2.324-3.56 6.029 1.38 3.268 2.54 6.319 2.54 6.682 0 .363-1.3 2.324-2.9 4.358-1.6 2.034-2.91 3.923-2.91 4.213 0 1.671 17.73 28.836 19.4 29.708.72.363 2.98.436 4.94.218l1.21-2.252.5-3.176c1.63-1.825 2.63-1.237 3.79-1.6 1.52-.436 2.49 1.29 3.65 3.396.43.872 2.61 1.969 3.85 3.977 4.68 3.178 10.64 1.924 15.01 4.085-1.68 6.563-1.14 13.908-1.68 10.706-1.09-6.363 1.86 3.542 4.48 8.263l11.64 3.764.72 4.752c-5.59 4.794-3.48 18.347-3.97 17.539-2.71-4.551-.19.093 11.26 7.451 2.9 1.961-.86 14.748 2.76 19.531 6.06 5.819 6.6 6.538 9.41 12.091l3.63 15.625-63.72-31.233c-3.66-3.396-7.28-8.187-7.49-8.114-.22.073-5.27-5.9-7.52-8.37z" fill="#E5E5E5"/><path d="M1044.8 574.927c-.87-2.106-1.09-3.995-.73-6.537.44-3.341.29-3.777-3.27-9.298-2.03-3.195-3.99-6.682-4.43-7.699-.36-1.017-.94-1.816-1.23-1.816-.29 0-3.63.944-7.41 2.179-8.06 2.542-8.06 2.543-11.77.654l-2.9-1.453-7.12 3.995c-4 2.252-7.411 4.068-7.629 4.068-.218 0-.436-.509-.436-1.162 0-.654-2.106-3.269-4.721-5.811-4.503-4.431-4.939-4.649-8.281-4.649-3.196 0-3.559-.218-4.939-2.76-1.089-1.961-1.598-4.431-1.816-9.225-.29-6.174-.218-6.828 2.107-11.839 1.307-2.906 2.397-6.102 2.397-7.119 0-.944 1.017-2.832 2.251-4.213 1.816-2.106 2.034-2.832 1.453-3.994-.436-.799-1.38-1.816-2.106-2.18-1.671-1.016-.727-1.815 4.576-3.995 2.397-.944 4.648-2.179 4.939-2.76.654-1.089-6.9-18.013-8.063-18.013-.363 0-2.179 1.743-4.067 3.922-2.833 3.269-3.85 3.995-6.102 4.213-2.687.218-2.687.218-2.469 3.196.29 2.978.218 3.051-5.23 7.118-3.051 2.252-5.811 4.068-6.174 4.068-.363 0-1.38-1.235-2.179-2.688-1.743-2.905-2.47-2.905-9.661-.654-3.196 1.017-3.486.945-3.486-.145 0-3.414 2.397-14.236 4.503-19.975 1.889-5.375 2.179-6.9 1.598-9.079-.581-2.324-1.089-2.833-3.704-3.777l-3.123-1.09-5.448 3.85c-2.978 2.034-5.738 3.777-6.102 3.777-.799 0-2.978-7.118-2.978-9.806 0-1.089.364-2.542.727-3.341 1.452-2.687.072-4.939-4.867-7.772l-4.649-2.688.509-2.905c.799-4.794.799-4.939-2.107-6.828-2.324-1.598-2.614-1.961-1.67-2.832.799-.872.944-3.051.654-11.332l-.364-10.241 7.191-3.705 7.119-3.631-.146-4.359-.145-4.43 4.503-1.38 4.504-1.381.363-5.447.363-5.448 2.543-.29c5.011-.436 4.939-.582-3.85-11.913-4.649-5.956-5.593-7.626-6.247-11.186-1.017-5.375-1.089-4.866 1.453-7.844 2.542-2.833 2.47-3.632-.799-9.08-1.09-1.888-2.397-4.576-2.978-6.101-.872-2.324-.799-2.76.29-3.922 1.017-.945 2.325-1.235 5.811-1.017 2.47.072 5.956-.291 7.772-.799 2.76-.872 3.559-1.526 5.085-4.431l1.816-3.341h8.498l-.508-3.85-.436-3.777 3.559-2.76c3.559-2.688 3.704-2.76 7.046-1.961 5.229 1.162 8.788 3.341 11.185 6.755l2.179 3.196-2.106 2.905-2.106 2.833 1.816 2.687c2.033 2.979 3.486 3.269 6.101 1.235 1.598-1.235 2.978-1.452 10.75-1.452 7.191 0 8.861.145 8.861 1.016 0 .582-1.6 1.526-3.78 2.252-5.008 1.671-5.735 2.324-5.517 4.939.218 2.034-.072 2.325-2.905 3.342-1.743.653-3.559 1.816-3.995 2.615-.436.799-3.777 5.011-7.409 9.442a725.643 725.643 0 00-7.554 9.225c-.799 1.089-.726 1.888.726 5.302 1.816 4.358 1.744 5.303-1.162 12.784l-1.307 3.341 2.687 4.359 2.76 4.43-2.251 9.007-2.252 9.08 1.162 10.169 1.162 10.241-3.341 15.69c-1.889 8.643-3.196 16.052-2.978 16.415.29.363 1.888.727 3.559.727 2.542 0 4.14-.654 7.917-3.269 2.688-1.816 5.157-3.269 5.521-3.269.435 0 2.106 1.598 3.849 3.632 3.632 4.213 5.884 4.794 5.811 1.453 0-.218-.218-1.09-.436-1.961-.363-1.235-.072-1.816 1.093-2.47 1.96-1.017 2.97-.073 4.21 4.213.58 2.179 1.23 3.123 2.18 3.123 1.45 0 8.06-6.682 8.06-8.062 0-.509-1.02-2.688-2.32-4.867l-2.25-3.995 3.05-2.905c2.9-2.688 3.26-2.833 6.46-2.397 1.89.218 6.47.653 10.17.871 7.19.436 6.83.218 7.55 4.94.15.871 2.47 2.614 6.4 4.794l6.17 3.413 1.23 5.739c1.89 9.079 6.18 17.505 13.01 25.422 3.26 3.777 8.2 10.678 10.96 15.399l5.16 8.426.51 10.169c.29 5.665.22 10.532-.07 10.895-.8.872-2.84-.872-2.84-2.542 0-1.235-7.33-7.191-8.78-7.191-1.17 0-7.92 9.806-7.7 11.186.07.871 1.38 2.179 2.97 3.05 2.26 1.235 3.27 1.453 5.09.945 1.23-.364 2.32-.654 2.47-.654.07 0 .14 1.961.14 4.358v4.358h-2.25c-1.16 0-2.83.291-3.63.727-1.38.799-1.38.944.87 4.866l2.33 4.068-2.98 2.76c-2.98 2.76-3.05 2.833-8.79 2.833h-5.81l-2.62 3.995c-2.68 4.285-2.97 5.375-1.74 6.682.87.799.36 2.397-.73 2.397-.36 0-1.16-1.38-1.81-2.978z" fill="#E5E5E5"/><path d="M984.655 331.307c-.653-1.525-.508-2.179 1.235-4.431l1.961-2.614-2.615-3.923c-2.76-4.14-6.973-6.9-12.057-7.917-1.38-.291-3.051-.654-3.705-.799-.653-.218-2.687.799-4.503 2.252-1.888 1.452-3.777 2.397-4.14 2.179-.363-.291-.727-1.598-.727-3.051 0-2.179-.726-3.341-5.011-7.772-6.392-6.61-8.789-11.259-8.789-17.069v-4.286l4.794-2.47c2.687-1.307 5.011-2.832 5.229-3.341.146-.581-1.016-2.397-2.687-4.14l-3.051-3.051 4.213-3.777c3.051-2.687 4.649-3.632 5.666-3.341.799.218 2.324.581 3.414.799l1.961.436-.436-3.705c-.363-3.486-.291-3.849 2.469-7.118 1.598-1.961 3.124-3.922 3.414-4.431.291-.508-1.234-2.687-3.922-5.665l-4.503-4.794.508-3.487c.436-3.414.436-3.486-2.179-5.084-2.106-1.308-2.542-1.961-2.179-3.196 1.307-4.213 1.235-4.576-1.017-6.247-1.235-.871-2.252-1.816-2.252-2.179 0-.29 2.179-1.961 4.794-3.704 2.615-1.744 5.085-3.85 5.448-4.794.436-1.235 1.162-1.671 2.76-1.671 2.615 0 2.615 0 3.922-5.738 1.017-4.213.945-4.576-.363-6.247-1.307-1.743-1.307-1.743.073-2.542 1.017-.508 1.598-.436 2.397.508.508.654 2.179 2.034 3.704 3.124l2.688 2.034 6.61-2.47c4.067-1.525 7.699-3.414 9.37-4.939 2.106-1.889 3.561-2.543 6.681-2.978 2.54-.291 4.94-1.163 6.47-2.252 3.85-2.833 5.37-2.397 8.49 2.615 2.33 3.777 2.98 4.358 4.94 4.358 2.69 0 3.2.581 4.94 5.157.66 1.816 1.6 3.85 2.11 4.576.94 1.235 1.09 1.235 3.34.073 2.18-1.162 2.47-1.09 4.65.29 1.31.799 4.28 3.414 6.68 5.811 2.4 2.397 4.72 4.431 5.16 4.431.65 0 4.65 17.215 4.65 19.902 0 .654-3.42.436-5.6-.363-1.09-.436-3.41-2.397-5.15-4.358-1.75-1.961-3.78-3.559-4.58-3.559-.94 0-3.12 2.615-7.04 8.498-3.13 4.721-5.89 9.079-6.11 9.733-.5 1.235.29 4.213 6.32 23.825 3.93 12.711 6.25 17.723 9.45 20.338 1.01.871 1.45.799 3.26-.581 2.33-1.671 3.64-1.962 3.64-.799 0 .435-1.6 2.614-3.49 4.939-3.05 3.704-3.7 5.157-5.52 12.13-2.47 9.37-2.98 10.532-4.65 10.532-2.54-.072-2.98-.944-2.11-4.213.95-3.414.29-4.503-2.76-4.503-1.88 0-17.79 9.297-18.3 10.75-.29.581.15 2.76.87 4.867.73 2.106 1.09 4.14.8 4.576-.22.435-1.6 1.089-2.98 1.598-1.38.435-2.54 1.089-2.54 1.452 0 .436-3.92.727-8.861.727-7.7 0-9.225.218-11.113 1.452-2.761 1.816-3.124 1.816-4.141-.363z" fill="#E5E5E5"/><path d="M977.319 194.97c-3.196-2.688-3.632-2.905-5.375-2.106-1.743.799-2.106.581-4.721-1.889l-2.76-2.76-5.811.218-5.884.218-2.832-3.124c-2.761-2.978-2.906-3.414-2.906-7.772 0-4.213.218-4.866 2.542-7.699 1.889-2.252 2.543-3.777 2.543-5.738 0-1.889.653-3.487 2.324-5.521 2.252-2.832 2.252-2.832.872-4.358-2.615-2.905-7.918-6.246-12.639-7.917-2.615-.944-5.012-1.961-5.375-2.324-1.017-.872 1.162-5.012 7.118-13.293 6.247-8.571 6.973-9.878 6.973-12.275 0-1.017.436-2.107.872-2.397.508-.291 4.503-.726 8.861-1.017 5.012-.363 8.208-.872 8.789-1.525 1.235-1.308 1.889-10.46.799-11.767-.508-.727-2.614-1.162-6.246-1.308-4.358-.218-5.884-.581-7.772-2.034-1.308-.944-2.397-2.251-2.397-2.76 0-1.017 7.99-15.616 12.566-22.88 2.251-3.632 10.677-11.476 20.919-19.394 10.096-7.844 35.081-24.696 36.611-24.696.8 0 3.27.654 5.44 1.453 2.18.799 4.65 1.453 5.45 1.38 1.96 0 9.37-5.23 9.74-6.828.36-1.816-.95-2.397-6.98-2.978-5.37-.508-6.46-1.307-4.21-3.196.58-.508 1.74-3.05 2.54-5.738 1.45-4.794 1.45-4.867 7.41-8.716 3.2-2.18 6.39-4.068 7.05-4.213.65-.145 2.32.726 3.7 1.888l2.54 2.107-1.3 4.939c-2.18 8.498-2.55 8.135 10.75 10.46 4.72.799 9.08 1.816 9.58 2.251 2.4 2.034 0 7.191-3.34 7.191-2.54 0-3.48.8-7.33 6.029-2.91 3.995-3.2 4.285-5.52 3.922-2.04-.363-2.98 0-6.03 2.47-3.78 2.978-4.07 3.486-4.8 8.28-.94 5.811-.51 5.448-7.11 4.94-7.34-.509-8.07 0-7.34 5.52.29 1.961.87 4.14 1.31 4.721.5.727 3.48 1.526 7.99 2.18 3.92.58 7.48 1.307 7.77 1.67.36.363 1.31 3.196 2.1 6.392l1.46 5.738-3.2 4.721c-3.99 5.739-3.63 6.61 2.76 6.61 3.92 0 4.94-.363 8.21-2.542 4.21-2.833 4.65-2.906 10.39-1.743 3.56.726 4.5.653 8.42-.727 5.81-2.033 7.63-1.96 10.03.509l2.03 2.106-5.45 5.811-5.45 5.811 2.84 11.476c1.59 6.32 2.76 11.913 2.54 12.421-.29.726-1.89 1.017-5.52 1.017h-5.09v3.269c0 1.888-.79 5.157-1.81 7.626-1.02 2.325-1.82 5.375-1.82 6.683 0 1.307-.43 3.995-.94 6.029l-.95 3.631-5.08.364c-4.5.29-5.45.653-7.85 2.687-1.45 1.307-3.05 2.397-3.55 2.397-.44-.073-2.11-2.324-3.64-5.084-3.05-5.811-3.19-5.811-10.96-3.995-6.32 1.452-6.69 1.598-7.56 3.559-.51 1.235-1.6 1.888-3.56 2.179-2.47.436-3.05 1.017-5.59 5.23-1.53 2.614-4.58 6.246-6.68 8.062-5.96 5.085-7.56 7.772-7.56 12.711 0 4.94-1.23 6.102-7.33 6.828-3.054.363-4.434.944-6.758 3.123-2.542 2.252-12.058 6.538-14.6 6.538-.363 0-2.324-1.38-4.213-3.051zM951.17 44.106c-2.397-2.615-2.688-3.342-2.688-6.9 0-3.415.218-3.996 1.671-4.431.872-.291 2.47-1.09 3.559-1.889 1.017-.726 2.252-1.307 2.688-1.307 1.888 0 .145 16.56-1.816 17.214-.436.145-1.961-1.09-3.414-2.687zm97.77 616.749c-.66-.436-.15-2.034 1.96-6.029 1.6-2.978 2.9-5.811 2.9-6.319 0-.509-2.1-4.286-4.72-8.426-3.27-5.302-5.88-8.426-8.71-10.677-2.18-1.744-4-3.705-4-4.359 0-1.452 2.18-8.062 3.05-9.152.37-.436 2.84-1.162 5.52-1.67 5.81-.945 8.86-2.034 8.86-3.196 0-.436-.43-2.107-1.01-3.705-.58-1.598-1.24-6.392-1.53-10.532-.36-5.738-.94-8.644-2.25-11.549-1.82-4.068-2.18-5.883-1.16-5.883.36 0 1.16-.436 1.89-1.017 1.3-.872 1.3-1.09.14-2.76-1.09-1.744-1.09-1.962.73-5.23l1.89-3.342h11.18l4-3.559 3.92-3.559-1.96-4.067-1.96-3.995 2.69-.218c2.1-.218 2.76-.581 3.12-2.034.8-2.833.73-10.024-.07-10.532-.37-.291-1.89-.146-3.35.29-2.03.581-3.12.436-4.72-.363-1.16-.581-2.1-1.307-2.1-1.67 0-.291 1.3-2.47 2.98-4.722l2.97-4.14 3.34 2.397c2.4 1.743 3.49 3.051 3.64 4.431.21 1.452.87 2.251 2.61 2.978 1.96.799 2.47 1.452 2.83 3.777.29 1.525 1.17 5.593 1.97 9.007 1.45 5.593 1.59 8.789 1.96 36.317l.36 30.144-4.65 10.169-4.65 10.097-8.93 2.687c-4.87 1.525-9.3 3.051-9.81 3.487-.58.435-1.09 2.978-1.31 5.811-.21 2.76-1.01 6.464-1.74 8.353-1.09 2.687-1.74 3.341-3.19 3.341-1.02-.073-2.18-.291-2.69-.581z" fill="#E5E5E5"/><path d="M830.086 502.219c-5.085-3.849-5.593-4.576-7.918-10.823-1.38-3.486-3.995-7.263-13.8-19.539l-1.962-2.469-4.576 1.961-4.576 1.961-4.576-4.431-4.648-4.43-5.303.435c-2.905.291-5.811.654-6.464.872-.582.145-2.979 4.14-5.23 8.789-3.124 6.465-4.286 9.661-4.576 13.074-.363 3.124-.945 4.94-1.889 5.811-1.38 1.235-1.525 1.162-3.414-1.235-1.38-1.67-2.397-2.324-3.196-1.961-2.251.799-12.493 7.918-15.108 10.46l-2.615 2.469-2.251-1.961c-2.761-2.251-2.833-2.832-1.163-19.321.654-6.392.945-12.057.799-12.566-.218-.508-1.452-1.162-2.687-1.453-1.598-.363-3.051-1.67-5.157-4.503-2.615-3.559-2.906-4.358-2.543-6.828.218-1.452.654-3.268.872-3.849.291-.799-.508-1.744-2.905-3.196-2.034-1.235-3.269-2.543-3.342-3.342 0-1.525-2.76-6.609-5.593-10.459-1.234-1.743-2.542-2.47-4.648-2.833-2.688-.436-2.833-.508-1.671-1.743.944-1.09 1.017-1.743.363-3.777-1.525-4.504-2.324-4.794-13.147-5.085l-9.806-.145-.217-3.486c-.146-2.252.29-4.504 1.307-6.756.799-1.888 1.453-4.067 1.453-4.794 0-.799-1.526-3.559-3.342-6.101-2.687-3.777-3.413-5.52-3.922-9.297-.799-5.303-1.307-6.973-2.252-6.973-1.67 0-1.307-2.325.872-5.303l2.324-3.341-2.687-13.655-2.615-13.656-3.704-3.704-3.705-3.777 4.14-4.141c3.923-3.922 4.359-4.14 6.973-3.849 3.85.581 4.649-.727 5.666-8.862.508-3.85 1.09-7.481 1.307-8.208.146-.726 2.47-3.704 5.012-6.537 2.543-2.905 4.649-5.811 4.649-6.465 0-2.033-11.186-18.231-14.527-21.137-2.978-2.542-3.269-3.123-4.721-9.805-.872-3.85-1.453-7.554-1.308-8.136.291-1.162 4.721-4.358 6.029-4.358.363 0 1.38 1.308 2.179 2.906 1.961 3.849 3.632 3.777 5.666-.363 1.961-4.068 3.486-5.012 10.968-6.901 6.101-1.453 7.336-1.453 7.336.291 0 1.525 4.285 4.794 6.246 4.794.945 0 5.593-1.598 10.315-3.559 4.648-1.962 9.224-3.778 10.096-3.995 2.397-.799 2.542-2.325.581-6.756-2.106-4.648-2.179-5.956-.799-7.917.872-1.162 1.816-1.307 6.537-1.162 5.303.218 5.666.145 8.136-2.034 1.38-1.162 2.832-2.179 3.123-2.179.363 0 3.995 2.978 8.135 6.683 5.738 5.229 7.118 6.755 6.029 6.973-1.526.29-3.196 1.452-3.196 2.324 0 .291 2.542 2.397 5.593 4.721 4.939 3.705 6.9 4.649 15.398 7.409 13.002 4.14 13.075 4.068 9.298-7.263-1.453-4.504-2.688-8.789-2.688-9.443 0-1.017.945-1.162 6.755-1.017l6.683.145 1.453-4.213c.799-2.251 1.888-4.285 2.469-4.503.581-.218 3.051-.654 5.448-.872 5.738-.581 7.118-1.307 6.61-3.341-.363-1.235.363-2.324 2.905-4.794 1.816-1.743 3.269-3.414 3.269-3.777s-2.252-2.397-5.085-4.431c-5.229-3.777-5.52-4.213-6.028-10.241-.364-4.068-.073-4.504 5.883-7.845 13.074-7.409 21.573-12.711 25.931-16.343 4.431-3.632 5.23-3.995 7.917-3.777 3.196.218 3.124.073 2.107 5.012-.218 1.162 0 2.034.653 2.252 1.017.363 24.406-4.576 25.859-5.521.508-.29 3.632-6.029 7.045-12.711l6.174-12.203 5.811-3.05c5.739-2.979 5.884-2.979 9.951-2.252 3.124.581 4.576 1.307 5.811 2.76.872 1.089 1.671 2.252 1.671 2.542 0 .218.654.654 1.453.944 2.179.654 10.023-4.939 11.331-8.135 1.235-2.833 1.089-2.833 8.498.146 4.358 1.743 9.951 5.738 9.951 6.973 0 .435-.653 1.598-1.452 2.614-.799 1.017-1.453 2.833-1.453 3.995 0 2.543-.945 4.431-3.705 7.7-1.888 2.106-2.106 2.833-2.106 7.554 0 4.431.291 5.593 1.453 6.61.799.726 1.598 1.888 1.816 2.615.726 2.324 5.592 3.849 10.75 3.268l4.648-.508 3.995 4.431 4.068 4.503-.872 3.777c-.799 3.487-1.017 3.777-3.341 4.14-1.889.291-2.542.799-2.905 2.107-.291 1.235-2.252 2.978-5.957 5.447-3.123 2.034-5.592 4.141-5.592 4.794-.073.581 1.089 1.816 2.542 2.76 2.106 1.381 2.542 1.962 2.106 3.269-1.38 4.431-1.307 4.721 1.38 6.392 2.542 1.671 2.688 1.816 2.252 5.012-.436 3.268-.363 3.414 3.559 7.627 2.252 2.397 4.068 4.721 4.068 5.157 0 .436-1.308 2.324-2.978 4.213-2.543 2.832-2.906 3.704-2.688 5.956.291 2.542.291 2.542-2.106 2.106-2.252-.436-2.906-.072-7.482 3.995-2.833 2.47-5.084 4.867-5.084 5.375 0 .436 1.162 1.961 2.542 3.341 1.453 1.381 2.47 2.761 2.324 3.124-.072.29-2.106 1.67-4.503 2.905l-4.358 2.325-.218 4.721c-.291 6.682 2.542 12.638 8.861 18.667l4.576 4.431 1.017 6.029c1.453 8.643 1.598 8.28-2.542 8.28-3.559 0-3.632 0-5.302 3.341-2.107 4.213-4.576 5.23-12.494 5.085-5.375-.145-5.593-.073-6.827 1.961-.654 1.235-1.235 2.615-1.235 3.196s1.525 3.85 3.341 7.336l3.269 6.32-2.252 2.832-2.324 2.833 1.162 5.448c1.017 5.157 1.525 6.029 6.973 12.929 5.956 7.554 6.246 8.571 2.469 8.644-1.67 0-2.469 2.542-2.469 8.353v2.905l-4.504 1.453-4.576 1.453.218 4.358.218 4.358-7.118 3.777-7.118 3.704.29 10.533c.218 10.096.145 10.532-1.307 11.331-2.325 1.235-1.816 2.687 1.598 4.576 3.196 1.816 3.196 1.888 2.397 6.9l-.509 2.978 4.721 2.76c2.615 1.526 4.94 3.196 5.158 3.777.218.582 0 2.179-.509 3.56-.799 2.106-.654 3.341.726 8.716 1.816 7.118 1.671 7.627-3.123 8.861-2.76.654-3.486 1.308-5.811 5.012-2.469 3.995-2.832 4.358-6.755 5.23-2.687.654-6.246 2.47-10.459 5.302-6.029 4.068-6.61 4.286-9.588 3.777-2.47-.363-3.995-.072-7.336 1.381-5.303 2.397-6.029 2.324-10.533-.436l-3.704-2.325-6.029 1.962c-6.537 2.106-13.437 2.542-18.812 1.089-3.051-.799-3.196-.799-7.772 2.542-2.543 1.889-4.794 3.342-5.012 3.342-.218 0-2.543-1.671-5.157-3.705zm-24.261-309.864c-.727-4.721-.581-5.302 2.179-6.392 2.905-1.235 9.079-1.162 9.515.146.29.799-6.465 6.391-9.733 8.135-1.308.726-1.526.508-1.961-1.889zm-28.691-12.929c-1.816-.581-3.559-1.307-3.922-1.743-.726-.726-2.615-9.297-2.688-12.203 0-1.598.146-1.67 6.392-1.452l6.32.29-.218-2.179c-.073-1.235-.218-3.051-.363-3.995-.073-1.38.217-1.816 1.307-1.816 1.017 0 1.598.726 2.034 2.76.653 2.615 1.089 3.051 5.665 5.085l4.94 2.324-3.632 4.721c-7.7 9.952-8.716 10.46-15.835 8.208zm16.271-18.231c-5.593-3.051-5.302-6.973.581-7.918 2.324-.363 2.542-.218 3.341 1.962.872 2.687 1.09 7.989.291 7.917-.363 0-2.179-.872-4.213-1.961zm12.131-10.46c-1.961-2.034-.799-3.196 6.755-6.973 9.806-4.867 10.169-4.867 9.515-.145-.29 1.961-.654 4.067-.872 4.576-.217.581-2.905 1.525-5.956 2.179-6.682 1.453-8.28 1.525-9.442.363zm315.454 376.543c-1.16-.654-2.76-1.67-3.56-2.324-2.76-2.397-9.8-12.276-13.14-18.45-2.98-5.52-3.78-6.537-6.47-7.699-2.54-1.09-5.52-4.286-16.12-17.215l-13.01-15.762-5.88-2.76c-7.34-3.341-10.82-6.464-15.47-13.728-3.92-6.101-4.43-8.208-2.47-10.314.94-1.09 1.09-1.961.51-4.794-.66-3.487-.95-3.777-6.47-6.174-2.47-1.017-2.83-2.542-.87-3.705 1.09-.726 1.96-.072 5.96 4.068 2.54 2.687 7.26 7.191 10.53 10.024 3.7 3.268 6.25 6.174 6.97 7.844.95 2.47 2.33 3.414 14.31 10.024 22.59 12.566 29.2 16.343 29.86 16.997.43.363-1.24 1.525-4.14 2.833-2.69 1.234-5.09 2.687-5.31 3.268-.21.581 1.31 4.939 3.34 9.661 2.11 4.721 4.58 10.387 5.6 12.638 2.1 4.794 2.68 5.085 17.79 10.097 9.37 3.05 14.02 5.811 9.59 5.738-1.16 0-3.92-.291-6.1-.654-2.91-.436-4.29-.363-4.94.291-1.02.944-1.09.726 2.47 8.934 1.23 2.76.51 3.051-2.98 1.162zM544.046 689.183c-1.961-.218-2.833-.944-4.503-3.632-1.235-1.816-2.325-3.922-2.543-4.576-.581-1.816-2.106-2.179-4.358-1.017-2.034 1.09-8.062 1.308-11.258.436-1.889-.509-11.84-13.728-11.186-14.818.218-.29 1.162-.508 2.106-.508 1.453 0 1.961-.581 2.688-2.978.726-2.543.726-3.124-.218-3.632-3.995-2.324-3.923-2.397 2.469-4.503 5.957-1.962 6.247-2.18 9.153-6.32 3.195-4.576 3.704-4.794 8.207-3.704 3.196.726 3.777.218 4.576-3.923.945-5.447 1.017-5.52 7.555-4.067 3.123.726 6.028 1.525 6.464 1.816 1.162.653.218 2.687-2.179 4.794-2.034 1.67-2.106 2.034-1.889 6.827l.218 5.085 3.196.944c2.761.727 3.487.727 4.794-.145 1.526-.944 1.671-.799 3.85 3.85 1.235 2.687 2.978 6.101 3.85 7.554l1.67 2.76-2.033 2.106-2.107 2.179 2.252 2.543c2.179 2.469 2.397 4.358.654 4.939-.509.218-3.632.944-6.973 1.743-5.376 1.235-6.32 1.671-8.281 4.068-1.235 1.525-2.542 2.687-2.978 2.615-.436-.073-1.889-.218-3.196-.436z" fill="#E5E5E5"/><path d="M483.613 601.221l-7.482 3.124c-5.375 2.179-9.806 3.486-15.617 4.358l-9.152 2.106c2.179 3.487 3.777 8.281 10.532 27.238 2.906 8.136 5.448 14.673 5.666 14.673.291 0 1.743-1.671 3.269-3.705 3.995-5.375 5.447-4.503 8.062 4.649l1.162 4.14 3.705.073c2.106.073 7.481.073 11.912-.073l8.063-.145 2.324 3.269c1.961 2.687 2.687 3.196 4.14 2.905 1.017-.218 2.107-1.017 2.615-1.816.872-1.67.581-1.888-3.777-4.358-1.961-1.089-2.179-1.525-1.453-2.397.509-.654 1.162-1.089 1.598-1.089.436 0 3.487-.872 6.901-1.889 5.883-1.816 6.028-1.888 9.37-6.537l3.341-4.721 3.922.363c3.777.508 3.85.581 4.286-1.453.29-1.162.944-3.414 1.525-5.085.799-2.179.944-4.503.581-9.079l-.508-6.101-6.973-8.136c-3.85-4.503-7.336-8.207-7.772-8.207-.436 0-1.235.508-1.744 1.089-1.598 1.961-3.268 2.47-10.169 3.269l-6.755.726-3.631 3.995c-2.034 2.252-4.068 3.995-4.504 3.922-.436-.145-3.777-3.559-7.118-7.626l-6.319-7.482zm225.533 57.019l-6.537-1.598-2.252-6.392c-1.307-3.486-2.469-6.464-2.615-6.682-.581-.508-30.507-6.973-33.122-7.118-3.413-.218-4.721-2.179-4.285-6.247.29-2.252.872-3.632 2.106-4.503 1.962-1.526 1.816-1.38 5.375-5.521 3.269-3.777 5.521-3.922 6.102-.508.363 1.961 1.235 2.615 9.442 6.682 6.247 3.051 9.952 4.504 11.913 4.504 2.034 0 4.14.871 7.045 2.76 3.777 2.397 4.213 2.978 4.068 4.939-.145 1.961.073 2.179 2.397 2.397 1.671.145 3.051.799 4.14 2.107l1.598 1.961 3.341-1.671c4.213-2.106 5.448-3.414 5.448-5.665 0-1.235 1.525-3.56 4.649-7.046 2.542-2.833 5.012-6.392 5.447-7.772.727-2.179 6.32-9.152 15.399-19.031.799-.871 1.525-3.704 2.034-7.99 1.671-14.527 1.743-16.27.581-18.086-.581-.944-2.034-4.576-3.123-8.062-2.034-6.32-2.034-6.392-.872-10.751 1.308-4.866 1.598-4.212-3.559-8.425-2.47-1.961-1.453-4.286 2.76-6.465 2.542-1.307 3.559-2.252 3.922-3.85.436-1.961.654-2.106 5.666-2.542 5.375-.436 7.046-1.453 7.046-4.213 0-1.525.726-1.598 4.576-.581 2.324.654 3.05.581 4.067-.363 1.744-1.525 2.615-1.38 3.559.726.945 2.034 1.017 2.034 7.119 1.017 3.704-.653 5.229-1.38 7.844-3.704 2.688-2.324 3.342-3.414 3.777-6.247.364-2.615 1.09-3.995 3.124-5.811 3.849-3.559 5.956-3.05 2.978.727-2.107 2.76-1.816 5.665 1.307 11.621 4.867 9.37 7.845 13.438 10.097 13.946 1.089.218 3.777 1.453 5.883 2.615 3.559 2.034 3.777 2.397 3.777 5.012 0 2.397-.29 2.906-2.179 3.705-2.542 1.017-6.755 5.81-12.421 14.091-2.179 3.123-4.285 6.247-4.794 6.9-1.525 2.034.509 7.482 3.269 8.717 4.068 1.816 3.705 4.576-1.598 10.895-2.179 2.688-4.866 4.794-8.208 6.537-4.576 2.397-4.939 2.833-5.52 5.593-.436 2.252-1.307 3.559-3.414 5.303-1.598 1.234-3.559 3.631-4.358 5.157-1.38 2.687-1.671 2.905-4.576 2.905-2.324 0-3.85.509-6.174 2.179-1.961 1.525-3.487 2.107-4.431 1.816-1.888-.581-6.61 1.743-6.61 3.341 0 .727.363 2.107.799 3.051.727 1.525.581 2.179-.726 3.995-2.252 3.196-1.961 4.939 1.089 6.537l2.615 1.308-2.542 1.743c-1.888 1.307-2.687 2.397-2.978 4.503-.508 3.196-.944 3.269-8.644 1.526-3.922-.872-6.973-1.017-12.348-.727l-7.191.509-5.665 3.995c-3.341 2.324-6.392 3.922-7.336 3.922-.945-.073-4.649-.799-8.281-1.671z" fill="#E5E5E5"/><path d="M763.333 656.86c-2.543-2.034-2.906-2.688-2.761-4.867.146-2.033.727-2.905 3.196-4.721 1.671-1.235 3.051-2.615 3.051-3.196.073-.508-1.235-1.453-2.833-2.179-3.341-1.38-3.486-2.034-1.38-4.794 1.38-1.743 1.526-2.252.799-4.649-.726-2.251-.654-2.76.436-3.559.726-.581 2.106-.799 3.341-.581 1.598.291 2.688-.073 4.939-1.816 1.962-1.598 3.923-2.397 6.61-2.76 3.342-.436 3.923-.726 4.867-2.833.654-1.307 2.615-3.777 4.503-5.593 2.252-2.179 3.487-3.995 3.777-5.811.436-2.324.945-2.832 5.012-4.648 3.705-1.743 5.23-3.051 8.716-7.409 3.923-4.939 4.213-5.593 3.995-8.644-.217-2.905-.508-3.414-2.542-4.358-3.341-1.38-4.576-5.302-2.542-7.554.799-.872 2.687-3.486 4.285-5.883 4.504-7.119 9.153-12.566 11.114-13.075 2.905-.799 3.632-1.816 3.632-5.23 0-2.469-.436-3.559-1.744-4.866-2.106-1.889-7.772-4.794-9.442-4.794-1.816 0-10.968-15.036-11.477-18.885-.218-1.598.145-1.816 4.576-2.615 8.571-1.598 11.259-3.85 10.46-8.862-.944-5.811-1.017-5.883-3.632-6.392-3.341-.654-4.721-3.196-4.721-8.934 0-5.085.145-5.157 7.118-5.157h4.867l1.452 3.704c1.235 3.196 2.397 4.576 7.264 8.353 3.196 2.543 7.699 5.593 9.951 6.901 3.922 2.106 4.14 2.397 3.995 4.794-.145 2.179.218 2.687 2.542 4.067l2.688 1.526 1.743-1.598c.944-.872 1.888-1.598 2.179-1.598.218 0 1.453 1.452 2.76 3.268 1.308 1.744 2.76 3.269 3.196 3.269.509 0 1.743-.726 2.833-1.525 1.089-.872 2.106-1.453 2.252-1.308.072.145.871 2.615 1.743 5.448.871 2.978 2.324 5.956 3.341 6.973l1.816 1.816-1.525 1.888c-.799 1.09-1.38 2.397-1.235 2.906.145.581 2.324 2.687 4.866 4.794l4.576 3.849-4.067 4.068c-2.978 3.051-4.504 5.375-5.811 9.007-2.106 5.447-1.961 6.755.872 7.409 1.089.29 3.413 2.106 5.157 4.067l3.196 3.632-1.961 4.358c-1.889 4.213-1.962 4.721-1.744 15.181.218 10.242.291 10.895 1.961 12.711 2.034 2.107 1.453 3.269-2.179 4.794-1.598.654-2.687 1.961-3.922 4.794-1.089 2.47-2.324 4.14-3.414 4.504-3.704 1.452-8.208 1.597-11.839.508-5.521-1.671-6.465-1.453-8.717 1.816-2.251 3.268-2.615 3.341-8.135 1.743-4.794-1.38-10.677-1.089-12.421.726-.653.654-2.832 3.995-4.866 7.482-3.487 6.029-4.068 6.61-12.784 13.002l-9.08 6.755-12.13 1.453c-16.415 2.033-17.142 2.033-20.773-.872z" fill="#E5E5E5"/><path d="M714.448 641.171c-.29-.944-1.307-1.526-3.268-1.889-2.543-.436-2.833-.726-2.615-2.106.508-2.397-8.717-8.426-12.784-8.426-2.107 0-5.375-1.235-11.259-4.14-7.481-3.632-8.425-4.358-8.861-6.319-.945-4.576-4.504-4.649-8.862-.146-3.123 3.196-3.196 3.269-4.939 2.107-1.453-.944-2.179-1.017-3.632-.363-1.67.799-2.615.435-9.225-3.269-6.319-3.487-7.989-4.14-11.258-4.213-3.704 0-3.995-.218-7.046-3.632-1.743-2.033-3.196-3.849-3.268-4.14 0-.218 1.67-1.525 3.631-2.76 2.034-1.308 3.632-2.397 3.705-2.47 0-.072.581-3.559 1.307-7.699 1.162-6.683 1.162-7.99.364-10.46-1.163-3.196-1.526-2.469 5.084-10.241l2.833-3.341-2.325-5.957c-1.234-3.341-2.251-6.464-2.251-6.973 0-.435.944-2.76 2.179-5.157l2.179-4.285 4.14-.436c6.537-.726 7.118-.944 8.208-2.905.581-1.017 1.235-1.816 1.525-1.671.291.073 1.889 1.961 3.559 4.068 2.615 3.341 3.269 3.777 5.303 3.631 2.324-.218 2.324-.29 2.397-4.285 0-3.777.363-4.576 5.593-12.566l5.593-8.426-1.09-2.687c-1.525-3.56-1.453-3.778 1.453-4.286 2.106-.363 3.196 0 7.046 2.397 4.503 2.833 9.515 4.576 11.331 3.995.436-.145.871-1.162.871-2.252 0-1.017.654-3.341 1.453-5.084 1.961-4.358 1.889-4.867-1.453-7.046-3.196-2.106-3.341-2.687-1.816-5.375.582-1.017 1.09-3.559 1.09-5.593 0-3.632-.073-3.777-2.397-4.576-1.38-.436-3.341-1.743-4.431-2.833-1.816-1.961-1.961-2.324-1.235-4.939.436-1.525.799-3.922.799-5.23 0-1.888.799-3.414 3.196-6.174 3.051-3.632 3.196-4.067 4.504-11.985l1.307-8.207-2.76-2.325-2.76-2.252.581-7.771.508-7.773 4.94-3.341c4.43-2.905 5.012-3.123 5.665-2.034.581 1.017.218 1.816-1.598 3.632-2.76 2.906-2.251 3.559 3.414 4.286l4.286.653 2.76 4.504c1.525 2.469 2.833 5.448 2.978 6.537.145 1.38 1.162 2.615 3.268 3.995 2.761 1.889 2.979 2.252 2.397 3.922-.435 1.017-.726 2.47-.726 3.196 0 2.034 6.537 11.622 7.917 11.622 3.124 0 3.196.436 1.889 15.98l-1.308 14.745 2.833 2.397c4.286 3.704 5.085 3.704 8.571.436 2.833-2.688 12.929-9.588 14.092-9.588.29 0 1.452 1.089 2.542 2.542 1.089 1.38 2.324 2.542 2.687 2.542.364 0 1.816-1.525 3.269-3.414 2.106-2.76 2.542-3.995 2.542-6.827 0-2.688.872-5.375 3.923-11.767 3.849-8.208 3.922-8.281 6.682-8.789 6.683-1.09 7.627-.799 12.275 3.922 2.397 2.397 4.649 4.358 5.085 4.286.363 0 2.034-.654 3.632-1.38 1.598-.799 3.486-1.453 4.14-1.453 1.235 0 12.275 13.51 12.784 15.616.145.654-1.235 1.09-5.303 1.453-6.391.581-6.9 1.09-6.9 7.191 0 5.448 2.034 9.588 5.085 10.242 2.542.508 3.849 2.905 3.486 6.464-.291 2.688-3.051 4.431-8.135 5.157l-3.559.509 1.234-1.671c1.598-2.324 1.526-2.615-.944-3.922-2.034-1.017-2.179-1.017-5.811 1.888-3.123 2.615-3.704 3.487-4.14 6.247a10.79 10.79 0 01-2.687 5.738c-2.761 3.196-3.632 3.632-8.571 4.286-4.068.508-4.068.508-4.867-1.743-.944-2.688-1.743-2.833-4.576-.727-2.034 1.38-2.324 1.453-5.302.436-3.632-1.307-4.504-.944-5.23 2.034-.654 2.833-1.38 3.196-6.247 3.268-5.23 0-6.392.436-6.392 2.543 0 2.034-.726 2.76-4.721 4.939-2.179 1.235-2.978 2.179-3.341 4.068-.581 2.978-.218 4.212 1.452 4.721.727.218 1.962 1.089 2.761 1.816 1.452 1.38 1.525 1.598.435 5.738-1.089 4.358-1.089 4.431 1.235 11.476 1.308 3.995 2.615 7.482 2.978 7.845.872.944.799 7.627-.072 13.438-.436 2.615-.945 5.811-1.163 7.045-.218 1.598-2.614 4.867-7.917 10.896-4.649 5.229-7.917 9.66-8.426 11.258-.435 1.453-3.05 5.157-5.81 8.208-3.632 4.068-5.012 6.101-5.012 7.554 0 1.598-.581 2.324-2.688 3.414-1.525.799-2.978 1.525-3.196 1.598-.29.145-.654-.363-.799-1.162zm-161.832 12.057c-1.452-.727-1.816-1.526-2.034-4.286-.217-2.978 0-3.559 1.744-4.721 3.631-2.47 11.186-10.314 11.186-11.622 0-.726-.509-3.268-1.09-5.665-1.453-6.102-1.38-7.554.799-10.387 1.889-2.397 1.889-2.542.799-5.303-.872-2.251-.944-3.341-.291-5.375.945-3.196.509-3.704-2.469-2.615-1.308.436-2.47.654-2.615.509-.145-.145.363-1.743 1.017-3.559 1.235-3.341 1.235-3.414-.436-6.32-1.525-2.76-1.671-5.157-.29-5.084.363 0 1.525 1.525 2.614 3.269 2.397 3.704 3.342 3.922 11.404 2.179 2.615-.581 5.012-.727 5.303-.436.363.363.944 2.034 1.307 3.777.363 1.743 2.833 7.336 5.375 12.348 2.615 5.084 4.721 9.588 4.721 10.169 0 .508-1.089 2.106-2.397 3.486-1.38 1.453-2.832 3.995-3.341 5.666-.654 2.542-1.961 3.995-6.973 8.208-4.14 3.414-6.319 5.811-6.61 7.118-1.017 4.794-1.307 5.085-6.61 5.593-6.537.581-7.554.944-7.336 2.397.291 1.525-1.452 1.816-3.777.654z" fill="#E5E5E5"/><path d="M555.521 637.103c0-1.09-1.598-1.598-9.515-3.341-3.922-.799-4.14-1.017-4.576-3.487-.218-1.453-.436-4.503-.436-6.828 0-4.067-.072-4.285-4.503-9.442-2.542-2.906-6.247-7.264-8.353-9.661l-3.777-4.431-1.09-9.006c-.581-5.012-1.307-10.533-1.598-12.349l-.436-3.341 5.448-1.162c2.978-.654 7.191-2.252 9.297-3.486 3.269-1.962 4.794-2.325 12.13-2.906 4.577-.436 8.354-.654 8.499-.508 3.704 4.648 6.9 9.951 6.9 11.476 0 1.162-.944 2.833-2.687 4.504-1.526 1.452-3.341 3.849-4.14 5.229-1.381 2.543-1.381 2.543.363 5.811l1.67 3.196-1.598 3.922c-.871 2.107-1.598 4.286-1.598 4.867 0 .944.218.944 4.649-.508 1.162-.291 1.307-.146.944 1.234-.218.945.146 2.761.727 4.068 1.162 2.397 1.162 2.542-.872 5.448-2.034 2.905-2.034 3.123-1.162 7.118 1.961 9.007 1.961 9.443-.654 12.13-2.687 2.76-3.632 3.123-3.632 1.453zm54.552-444.748c0-.654.581-5.303 1.307-10.169 1.017-6.828 1.671-9.152 2.688-9.879 2.033-1.525 2.978-1.307 4.067.872.872 1.598 1.453 1.888 3.559 1.816 2.543-.146 2.615-.073 4.794 4.866 1.671 3.632 2.034 5.157 1.453 5.666-.872.654-16.997 8.135-17.578 8.135-.218 0-.363-.581-.29-1.307zm-13.004-13.292c-3.268-.727-6.246-1.526-6.609-1.671-.291-.218-1.163-2.252-1.889-4.431-.944-3.196-1.089-4.939-.654-7.844.654-3.487.799-3.777 3.487-4.649 4.503-1.453 10.387-1.308 12.638.363 1.889 1.38 1.962 1.671 2.179 9.733.146 7.046.001 8.281-1.016 9.08-.727.508-1.453.871-1.671.871-.218-.072-3.123-.653-6.465-1.452zm-13.8-23.462c-1.961-2.179-2.107-2.833-1.598-4.866a442.074 442.074 0 001.452-5.448c.799-3.196 3.85-7.482 5.303-7.482 1.453 0 6.247 8.136 6.755 11.404.799 5.157.073 6.465-4.358 7.772-5.157 1.526-5.012 1.526-7.554-1.38z" fill="#E5E5E5"/><path d="M666.073 342.565c2.18.581 4.141 1.961 6.465 4.358l3.341 3.487 2.252 11.985c1.307 6.537 2.324 12.348 2.324 12.856 0 .436-1.162 2.252-2.542 3.923-3.051 3.777-3.123 4.794-.436 6.755 1.744 1.307 2.107 2.179 2.543 6.101.363 3.777 1.016 5.448 3.704 9.515 1.816 2.688 3.269 5.375 3.269 6.029 0 .654-.654 2.47-1.526 4.14-1.307 2.543-1.453 3.85-1.089 7.7.218 2.615.581 4.866.871 5.157.509.508 1.889.581 11.767.654l7.046.145-4.286 2.833c-2.397 1.598-4.576 3.341-4.866 3.849-.291.509-.654 4.649-.727 9.225l-.145 8.208 2.397 2.034c2.252 1.816 2.397 2.179 1.961 5.157-1.961 13.147-1.743 12.275-4.939 15.617-2.76 2.832-3.196 3.631-3.632 7.699-.29 2.542-.799 5.23-1.017 6.101-.581 1.962 3.196 6.465 6.683 7.918 2.978 1.234 3.123 3.123.581 7.917-1.017 1.888-1.816 3.704-1.816 3.995 0 .363 1.525 1.525 3.341 2.615 2.325 1.38 3.196 2.252 2.978 3.123-.217.654-.799 2.324-1.307 3.777-.436 1.38-.944 2.906-1.09 3.414-.29 1.09-2.106 1.09-4.576.145-.944-.436-3.631-1.888-5.956-3.268-3.486-2.107-4.648-2.47-6.682-2.107-2.034.363-4.431.872-4.939 1.526-.509.653-.509 1.307 0 2.324 2.469 4.503 2.469 4.576-3.269 13.22-4.794 7.336-5.375 8.643-5.375 11.767 0 4.721-1.235 4.503-5.448-.872-1.816-2.397-3.632-4.358-3.995-4.358-.29 0-1.525 1.162-2.687 2.615-2.034 2.469-2.47 2.687-7.191 3.123l-5.012.436-2.688 5.084c-1.525 2.761-2.687 5.593-2.76 6.174 0 .581 1.017 3.705 2.179 6.828 2.47 6.392 2.761 5.593-3.123 12.348l-3.559 3.995 1.089 3.269c1.017 2.978 1.017 3.995 0 10.169l-1.162 6.828-3.849 2.687c-2.18 1.525-3.923 3.196-3.923 3.777s1.889 3.123 4.213 5.666c2.252 2.615 4.14 4.939 4.14 5.157 0 .29-3.559 1.525-7.99 2.833l-7.99 2.324-.653 3.051c-.436 1.961-1.308 3.486-2.397 4.213-.944.581-2.978 3.268-4.504 5.956-4.794 8.135-7.408 10.023-16.778 11.985-.582.145-3.632-.146-6.683-.582-4.649-.653-6.029-1.162-7.627-2.832l-2.033-2.034 4.14-3.777c2.905-2.615 4.358-4.649 4.866-6.537.364-1.453 1.889-4.068 3.269-5.739 1.453-1.67 2.615-3.486 2.615-4.067 0-.509-2.252-5.448-5.012-10.896-2.688-5.52-5.23-11.331-5.448-13.001-.944-5.23-1.452-5.521-7.554-4.286-7.772 1.671-8.934 1.526-10.823-1.235-2.542-3.777-2.614-4.43-.217-6.682 1.815-1.743 2.179-2.688 2.179-5.303 0-2.614-.581-4.067-3.196-7.772l-3.196-4.576 1.307-2.033c.872-1.308 1.235-2.761.944-4.213-.29-1.889.218-2.978 2.615-6.029 2.397-2.978 2.978-4.286 2.978-6.682 0-2.761-.145-2.979-2.687-3.632-9.733-2.543-8.934-2.107-8.934-5.012 0-3.341.29-3.705 4.576-6.61 3.777-2.615 3.922-3.123 2.251-7.336-1.089-2.76-1.307-2.906-4.285-2.906s-3.341-.29-6.901-4.721c-4.212-5.157-4.212-5.157-14.381-5.883-8.208-.582-9.661-1.526-7.482-4.867 1.38-2.179 1.38-2.252-.218-6.537-1.089-3.124-1.307-4.431-.653-4.649 1.307-.508 12.13-8.353 12.711-9.225.944-1.38.654-1.743-4.068-4.503-3.486-2.034-5.012-3.414-5.956-5.52-1.453-3.196-1.307-3.414 5.157-10.387 4.358-4.722 4.576-5.666 2.833-10.823-1.162-3.414-1.162-3.414.872-6.319 3.559-4.939 3.922-5.956 3.922-11.695 0-6.609-.872-7.99-5.956-9.297-3.85-1.017-3.487-.145-3.85-9.443-.073-2.251-.218-4.43-.29-4.939 0-.508-1.163-1.453-2.543-1.961l-2.397-1.017-.508-7.409c-.509-6.246-.872-7.917-2.615-10.822-1.307-2.252-2.324-5.448-2.905-9.007-.727-4.939-.654-5.666.653-8.208 1.308-2.542 4.358-7.191 5.085-9.297.726-2.107.508-3.196-1.816-9.806l-2.688-7.409-2.614.508c-5.158.945-5.303.872-8.499-3.631-1.743-2.397-3.123-4.576-3.196-4.867 0-.291 1.961-1.889 4.358-3.632 4.576-3.341 6.247-6.101 6.973-11.767.436-2.76.146-3.341-2.542-6.61-1.598-2.033-2.978-3.995-2.978-4.358 0-.436 1.671-2.469 3.704-4.576l3.705-3.85 1.162 1.598c2.47 3.487 3.777 4.359 6.537 4.141l2.688-.218.218-4.504c.218-4.285.145-4.576-3.342-9.079-1.888-2.542-3.704-5.157-3.995-5.884-.508-1.38.799-12.13 1.598-13.001.218-.291 6.029-1.017 12.784-1.671 17.723-1.671 18.522-1.816 19.031-3.051.218-.653-.436-2.832-1.453-5.012l-1.888-3.849 3.05-4.504c1.671-2.542 4.722-6.464 6.828-8.716 3.269-3.486 5.012-4.576 12.639-7.99 6.319-2.833 9.079-4.431 9.588-5.665.726-1.453 6.682-5.158 8.425-5.158.364 0 1.017.945 1.526 2.107 1.598 3.922 2.106 3.922 10.096.073l7.409-3.632-.218-2.688c-.218-2.469-.073-2.687 2.324-3.341 4.213-1.09 4.576-1.816 3.559-6.828l-.871-4.358 3.559-5.665c1.961-3.124 4.213-6.102 5.012-6.61 1.743-1.308 4.794-1.308 6.392-.146 1.089.872.944 1.235-1.743 4.359-4.141 4.866-3.56 5.956 2.905 5.302 4.794-.509 5.012-.436 5.448 1.162.218.944.435 2.397.435 3.269 0 1.307 1.235 2.469 2.615 2.469.146 0 1.889-1.525 3.923-3.268l3.704-3.269h13.075l4.721 3.777c2.687 2.107 4.939 4.576 5.157 5.593.29 1.017.508 5.157.581 9.152v7.264l-4.794 7.263c-2.615 3.995-6.464 10.315-8.571 14.019-2.106 3.777-5.23 9.152-7.046 11.985-3.123 5.084-3.849 7.263-2.542 8.062.436.218 2.542.218 4.867-.072 3.922-.436 4.503-.799 10.387-6.174 3.414-3.124 6.464-5.666 6.755-5.666.581 0 .799.581 2.469 8.208 1.163 5.012 1.598 5.956 4.068 7.917 1.598 1.162 5.012 5.521 7.772 9.588 7.627 11.404 7.409 9.879 2.252 15.69-4.94 5.592-5.448 6.827-6.174 14.672-.654 6.9-1.017 7.481-4.576 7.191-2.615-.145-3.051.145-7.99 5.302M448.965 547.761h-.145c-.363.218-.726 1.525-.726 2.76 0 1.453-.654 2.905-1.816 4.14l-1.889 2.034 1.526 2.542c1.816 3.123 1.452 3.414-5.157 5.157l-4.794 1.235-1.598 5.593-1.598 5.52 2.469 3.632c2.76 3.85 2.76 4.213.145 10.169l-1.162 2.833 1.598-.363c.945-.218 3.269-.872 5.23-1.38 2.76-.799 3.487-.727 4.213 0 .726.726.726 1.38-.581 3.704-.944 1.525-1.671 3.341-1.671 3.85 0 .508 2.107 3.268 4.576 6.319 1.162 1.453 2.107 2.47 2.906 3.632 3.268-1.308 6.682-1.961 10.241-2.542 5.811-.945 10.097-2.107 15.617-4.431l7.627-3.269 3.995 4.504c2.179 2.469 5.157 5.883 6.682 7.481l2.688 2.978 3.704-3.704 3.705-3.85 6.537-.508c7.554-.582 10.822-2.397 10.822-6.029 0-3.487-2.397-22.227-2.905-22.88-.291-.291-2.615.435-5.084 1.743-2.47 1.235-4.794 2.034-5.158 1.743-.363-.363-1.089-3.269-1.743-6.465-.581-3.123-1.38-5.956-1.67-6.246-.291-.291-3.269-.073-6.61.363-5.448.654-6.174.508-7.046-.581-.581-.872-2.76-1.453-5.956-1.961l-5.085-.727-2.542-4.212c-1.307-2.252-3.414-4.722-4.721-5.593-2.47-1.744-22.445-7.482-24.624-7.191z" fill="#E5E5E5"/><path d="M410.178 597.371c-.218-.363-.218-1.816.073-3.268.581-3.124-.073-4.068-5.884-7.773-3.414-2.251-4.939-2.76-7.118-2.614-1.889.145-2.978-.146-3.341-.872-.363-.581-1.017-5.52-1.526-11.041l-.871-9.951 3.559-7.118 3.486-7.118 4.359-1.09 4.358-1.089-.146-4.359c-.363-7.118-.944-8.498-4.212-9.37-2.761-.799-2.906-.944-3.124-4.067-.145-2.615.291-4.068 2.252-7.264 1.307-2.179 2.687-3.922 3.051-3.777.435.073 1.162 1.453 1.743 3.051 1.017 3.123.581 2.905 10.605 5.375 2.397.581 7.263 1.235 10.75 1.525 6.029.436 6.61.364 9.588-1.38 1.743-1.017 3.341-1.888 3.559-1.888.218 0 0 1.162-.363 2.615-.654 2.251-.364 3.704 2.251 10.968 3.632 10.314 3.777 13.074.581 16.633-2.251 2.615-2.324 2.688-1.089 4.794.726 1.235 1.089 2.397.944 2.688-.218.29-2.179.944-4.358 1.452-2.252.509-4.431 1.308-4.939 1.816-.509.509-1.743 3.559-2.615 6.828l-1.743 5.956 2.615 3.632 2.614 3.632-1.452 3.704c-.799 2.034-1.38 4.213-1.235 4.794.436 2.688-20.847 7.046-22.372 4.576zm98.785-25.494l-1.089-5.957h-6.901c-4.213 0-7.336-.363-7.99-.871-.581-.436-3.123-1.09-5.593-1.38-5.012-.581-5.012-.581-8.135-5.52-2.978-4.794-6.101-6.465-18.159-9.661-5.811-1.525-10.895-2.978-11.476-3.269-.581-.29-2.325-4.14-3.85-8.498-2.76-7.481-2.833-8.063-2.034-11.767.727-3.051 1.816-4.939 5.666-9.515 4.503-5.448 4.939-5.739 7.772-5.811 1.67 0 3.414-.436 3.85-1.017.435-.508 2.251-4.794 4.067-9.515 1.743-4.722 3.414-8.717 3.559-8.934.146-.146 3.269-.073 6.973.217 6.32.509 6.683.654 7.7 2.615l1.089 2.107 5.956-.509c5.811-.436 6.102-.363 11.186 2.179 2.906 1.453 5.738 2.688 6.247 2.688.581 0 3.269-1.453 6.029-3.269 3.849-2.469 5.229-3.05 6.246-2.469.727.363 1.308 1.017 1.308 1.38 0 .436.799 1.017 1.743 1.38 1.09.436 2.397 1.961 3.269 4.067l1.525 3.414-1.453 2.034c-1.38 1.961-1.452 2.252-.436 4.213 1.235 2.324 1.889 2.47 13.075 3.486 5.738.436 5.811.509 8.716 3.778 5.738 6.391 6.102 6.682 8.789 6.682 2.106 0 2.688.291 3.269 1.816 1.089 2.833 1.017 2.905-2.833 5.375-3.705 2.397-4.431 3.922-4.431 9.225 0 2.179.218 2.469 3.123 3.196 7.119 1.961 8.862 2.687 9.08 3.704.145.654-1.308 3.196-3.123 5.666-2.833 3.849-3.342 4.939-2.979 6.827.727 4.213-.581 4.94-10.604 5.739-8.063.653-9.298.944-13.002 3.123-2.397 1.38-6.465 2.833-9.661 3.486-2.978.654-7.408 2.18-9.805 3.342-2.397 1.234-4.649 2.251-5.012 2.251-.363 0-1.09-2.687-1.671-6.028zm57.455 102.924c-.799-.872-.654-1.38.653-2.76 2.034-2.179 1.962-2.906-.653-7.046-1.163-1.961-2.906-5.447-3.923-7.772-2.033-4.794-1.743-5.23 3.342-5.23 4.067 0 5.52-1.234 6.101-5.157.291-1.525 1.09-3.341 1.816-4.067 1.38-1.162 1.525-1.09 3.922 1.162 2.252 2.179 3.051 2.469 9.08 3.123 12.202 1.38 18.74-1.67 24.478-11.404 1.38-2.397 3.632-5.375 5.012-6.682 1.525-1.38 2.469-2.906 2.469-4.068 0-2.324.945-2.978 5.811-4.358 12.784-3.632 12.494-3.486 12.13-4.939-.653-2.615 3.269-1.598 11.477 2.905 6.973 3.777 8.062 4.213 9.951 3.56 1.525-.582 2.397-.509 3.123.145.944.799.872 1.089-.581 2.469-2.542 2.397-3.269 8.499-1.235 11.259.799 1.162 1.453 2.397 1.453 2.76s-2.252 3.85-5.084 7.845c-2.761 3.922-5.085 7.336-5.085 7.626 0 .218 1.307 3.705 2.905 7.773 1.598 4.067 2.906 7.699 2.906 8.135 0 .436-1.598 1.598-3.632 2.615-3.486 1.743-4.067 1.815-17.723 1.815H621.04l-.872-3.704c-.581-2.324-1.453-3.995-2.47-4.576-.799-.508-6.101-1.671-11.694-2.615l-10.169-1.598-14.019 6.973c-7.699 3.85-14.091 6.973-14.236 6.973-.145 0-.654-.508-1.162-1.162zm-214.93-114.837c-7.772-.872-11.259-.944-13.438-.363-2.179.581-4.866.435-11.041-.509-4.43-.653-8.353-1.453-8.643-1.743-.218-.291.436-1.671 1.525-3.123 1.09-1.38 1.816-2.978 1.598-3.487-.218-.508-2.542-1.525-5.157-2.252-2.615-.653-4.794-1.525-4.794-1.743 0-1.162 4.358-7.118 6.828-9.515 2.542-2.47 2.615-2.615 2.615-7.99v-5.593l2.542-1.162c1.453-.727 3.341-1.235 4.285-1.235 2.979 0 8.499 2.324 9.661 4.068 1.38 2.179 2.179 2.179 4.939 0 3.051-2.47 4.939-1.453 4.286 2.324-.654 3.995 3.849 13.002 6.828 13.583 3.777.799 8.062 3.196 9.297 5.23.726 1.089 2.687 3.341 4.358 4.939 4.213 3.922 4.576 5.593 1.816 7.554-3.051 2.179-5.23 2.252-17.505 1.017z" fill="#E5E5E5"/><path d="M338.34 523.356c-1.017-1.525-8.135-4.285-11.186-4.285-.799 0-2.76.653-4.43 1.525l-2.906 1.598-2.833-1.961c-1.598-1.017-3.268-1.889-3.704-1.889-.726 0-2.905-.944-11.694-4.866-1.526-.654-2.397-1.526-2.397-2.397 0-2.107-1.308-2.47-4.286-1.162l-2.76 1.234-4.794-2.614c-5.23-2.906-5.23-2.906-3.85-8.717l.799-3.632 3.995-.363c3.923-.363 3.995-.435 5.739-3.849 1.743-3.632 2.251-3.85 6.609-2.833 3.56.871 4.286.436 4.794-2.906.509-3.05.146-2.76 8.136-6.101 2.033-.872 2.324-1.38 2.179-3.414-.073-1.38.435-3.196 1.089-4.213 1.598-2.251 1.526-3.704-.218-7.045-2.034-3.777-1.888-5.811.581-6.828 1.889-.872 7.191-6.029 12.058-11.84 1.38-1.67 2.687-4.213 2.978-5.811.581-3.413 2.324-7.045 3.704-7.844.581-.363 1.017-1.162 1.017-1.889 0-.726.436-1.888 1.017-2.687 1.017-1.38 1.09-1.308 1.816.799 1.307 3.631 1.889 4.285 5.375 6.174 2.76 1.452 4.068 2.978 7.482 8.643l4.14 6.755-1.598 6.828-1.526 6.755 1.598 3.196c1.453 3.124 1.453 3.414.436 7.7l-1.162 4.43 2.179 1.816c1.162.945 2.397 1.816 2.615 1.816.291 0 1.453.799 2.542 1.816 1.671 1.598 1.961 2.397 1.961 6.029.073 2.252.509 4.939 1.09 5.956.581.944 1.09 3.487 1.09 5.52v3.705l-2.688.436c-4.213.726-7.118.581-7.99-.364-1.307-1.234-6.029 9.516-6.029 13.656 0 1.743-.145 3.196-.363 3.196s-1.38-.509-2.615-1.162c-2.034-1.017-2.251-1.017-4.576.799l-2.397 1.816-1.017-1.526z" fill="#E5E5E5"/><path d="M380.033 559.528c-6.174-2.106-6.827-2.469-7.554-4.648-.363-1.308-2.034-3.414-3.559-4.649-1.598-1.235-3.269-3.124-3.777-4.14-1.235-2.543-6.029-5.739-9.443-6.247-2.469-.436-2.905-.872-4.939-4.867-2.542-5.229-2.687-6.392-.726-8.861 1.017-1.308 1.453-2.978 1.453-5.593 0-2.47.581-4.867 1.815-7.264 1.962-3.849 2.543-4.067 11.259-4.576l3.269-.145.217-3.85c.218-3.559.364-3.777 2.107-3.777 1.089 0 3.268-.653 4.866-1.38 1.671-.799 5.884-2.106 9.443-2.978 7.264-1.743 13.583-5.52 15.036-8.934.436-1.09 1.162-1.961 1.598-1.961.436 0 3.922 1.743 7.772 3.922 6.973 3.995 7.045 4.068 11.113 10.75 2.252 3.705 4.721 8.208 5.52 10.097 1.453 3.268 1.671 3.413 8.208 5.665 3.704 1.308 7.046 2.615 7.409 2.978.29.291-1.162 1.743-3.269 3.123-3.922 2.47-3.922 2.543-9.006 1.816-6.828-.871-12.494-1.888-15.762-2.832-2.397-.654-2.833-1.163-4.286-5.085-1.089-2.905-1.961-4.285-2.833-4.285-.726 0-2.615 2.179-4.794 5.593-3.341 5.302-3.559 5.956-3.559 10.604 0 5.157.654 6.247 3.705 6.32 2.179 0 3.05 1.307 3.559 5.52l.508 3.632-4.067.944-4.141.872-4.14 8.353c-2.615 5.302-4.503 8.208-5.23 8.208-.581-.073-4.14-1.09-7.772-2.325z" fill="#E5E5E5"/><path d="M435.672 515.22c-6.465-2.397-8.644-3.704-8.644-5.229 0-.436-2.252-4.576-5.012-9.152l-4.939-8.281-8.208-4.721c-7.554-4.286-8.28-4.576-9.007-3.341-3.486 5.883-8.135 8.861-17.069 10.968-3.85.944-7.99 2.251-9.152 2.832-3.777 1.962-5.23 1.526-6.901-2.106-.871-1.961-1.452-4.721-1.452-7.118v-3.923l-3.995-2.687c-4.358-2.906-4.504-3.341-3.196-8.934.726-3.124.653-3.85-.727-6.32l-1.598-2.833 1.526-6.827 1.598-6.828-4.576-7.699c-3.995-6.828-4.94-7.845-7.772-9.152-2.397-1.017-3.487-2.034-4.286-4.068-1.743-4.14-1.38-7.046 2.179-16.053 3.414-8.571 4.14-9.587 10.968-14.745 2.252-1.743 2.615-2.469 2.615-4.939 0-2.469.509-3.486 3.196-6.319 3.051-3.196 3.341-3.341 5.012-2.397 1.743.872 2.179.726 7.118-2.76 2.906-2.034 6.029-3.705 6.973-3.705 1.598 0 1.671.291 1.671 4.576 0 3.777-.436 5.375-2.252 8.717l-2.252 4.14 2.615 3.486 2.543 3.487 7.844.944c4.867.581 9.225 1.526 11.549 2.542 3.632 1.671 3.705 1.744 3.632 4.794-.073 3.051.073 3.269 3.487 5.23l3.559 2.107 5.302-1.598 5.375-1.598 3.487 2.905c3.123 2.615 3.486 3.196 3.849 6.828.218 2.469 1.38 5.956 3.196 9.515l2.833 5.666h4.649c4.503 0 4.794.072 9.588 3.922 4.503 3.559 5.447 3.995 11.331 5.012l6.392 1.162 5.084 5.52 5.085 5.448h14.018l4.141-3.414 4.14-3.414 4.14 4.504c3.923 4.213 4.358 4.503 7.409 4.503 2.324 0 4.286.654 7.554 2.542 2.397 1.453 4.867 2.906 5.448 3.196.654.363 1.017 1.308.871 2.47-.435 3.559 2.397 8.28 6.32 10.75 2.034 1.235 3.486 2.615 3.268 2.978-.871 1.307-10.387 7.118-11.767 7.118-.726 0-1.961-.653-2.687-1.452-.727-.799-1.743-1.453-2.252-1.453-.508 0-3.486 1.525-6.537 3.414l-5.52 3.414-5.375-2.761c-5.303-2.76-5.521-2.76-10.823-2.324-5.375.509-5.448.509-6.247-1.38-.508-1.017-1.598-2.034-2.397-2.179-3.05-.581-14.745-1.017-15.471-.508-.436.29-2.107 3.995-3.705 8.207-4.067 10.823-4.067 10.823-7.336 10.823-2.615 0-3.123.363-7.336 5.375-2.542 3.051-5.157 5.448-5.738 5.448-.581 0-3.923-1.09-7.336-2.325z" fill="#E5E5E5"/><path d="M521.962 465.683c-4.14-2.47-6.392-3.269-8.571-3.269-2.615 0-3.341-.435-6.682-4.067-5.448-5.884-5.448-5.884-10.314-1.743l-4.213 3.631h-12.566l-4.867-5.375-4.866-5.375-6.61-1.235c-6.102-1.234-7.046-1.67-11.549-5.229-4.794-3.705-5.158-3.85-9.588-3.923h-4.576l-2.761-5.956c-1.743-3.922-2.687-7.045-2.687-9.007 0-2.76-.363-3.341-3.777-6.391-2.107-1.816-4.358-3.269-5.012-3.269-.726 0-3.269.581-5.811 1.38l-4.503 1.453-3.051-1.816c-2.76-1.598-3.051-2.034-3.051-4.794 0-4.649-3.704-6.465-16.052-7.917-7.409-.872-7.482-.872-9.225-3.487-2.252-3.269-2.252-3.559 0-7.481 1.453-2.615 1.816-4.141 1.816-8.717v-5.593l2.179-.435c1.162-.291 3.777-1.962 5.738-3.705 3.342-3.051 4.141-3.341 10.024-4.358 8.716-1.525 8.063-1.235 13.801-6.682 3.777-3.632 5.448-5.811 6.101-8.063.799-2.688.799-3.269-.145-3.777-3.196-1.961-3.196-1.816-.436-5.884 1.526-2.106 2.688-4.285 2.688-4.721 0-.436-.872-2.542-1.889-4.576-1.888-3.777-1.888-5.811-.072-5.811.508 0 4.14 4.867 8.062 10.896 5.085 7.699 7.554 10.895 8.498 10.895.872 0 2.252-1.308 3.632-3.487 2.833-4.503 3.196-6.174 1.743-8.425-.944-1.453-1.089-2.688-.653-5.956.508-4.141.508-4.141-2.179-6.392l-2.76-2.252 1.743-2.179c.871-1.162 2.905-4.721 4.358-7.917 2.542-5.593 2.615-5.884 1.525-7.772-1.961-3.342-.871-5.158 5.884-9.37 5.447-3.414 6.682-4.649 11.621-11.332 3.56-4.866 6.029-7.554 6.901-7.554 1.38 0 9.442 2.76 10.387 3.632.363.291.363 2.179.072 4.286-.435 3.195-1.234 4.648-5.447 9.951-2.76 3.486-5.012 6.9-5.012 7.772 0 .799.508 3.413 1.162 5.738 1.162 4.14 1.162 4.285-.726 9.951-1.017 3.196-1.889 6.392-1.889 7.118 0 .727-1.162 4.794-2.542 8.934-1.38 4.141-2.542 8.208-2.542 9.007 0 .799.871 3.487 1.888 5.884l1.816 4.431-2.978 5.592c-1.671 3.051-3.269 5.593-3.632 5.593s-2.615 2.397-5.084 5.448c-4.286 5.302-4.431 5.448-7.7 5.448-1.743 0-5.52-.727-8.207-1.526-10.169-3.123-11.985-.799-4.94 6.392 5.012 5.157 10.387 8.136 14.527 8.208 4.359 0 12.784-4.285 15.98-8.28 1.526-1.889 4.722-4.722 7.119-6.32l4.285-2.905v-8.281c0-9.297.363-10.168 4.867-10.967 4.14-.799 6.101.726 7.336 5.52 2.397 9.733 2.252 9.442 4.358 9.442 1.09 0 3.051-.726 4.431-1.525l2.397-1.453-.509-5.229c-.29-2.906-.799-5.956-1.089-6.755-.363-.872-2.833-3.124-5.521-5.085-4.14-2.978-5.738-3.632-10.023-4.285-4.504-.654-5.157-.945-5.593-2.543-1.235-4.576-.727-6.9 2.978-12.711 2.034-3.196 3.632-6.101 3.632-6.537 0-.436-.799-3.995-1.744-7.99-2.033-8.135-1.816-9.08 2.615-13.147 3.705-3.487 8.934-6.973 9.152-6.247.146.436-.944 3.777-2.324 7.627-1.453 3.777-2.615 7.263-2.615 7.699 0 1.598 13.874 9.516 16.779 9.516 1.671 0 3.486-1.889 3.559-3.56 0-.508-2.106-3.341-4.721-6.246-2.615-2.906-4.722-5.811-4.722-6.392 0-1.961 1.453-2.252 3.196-.581 1.816 1.67 3.414 1.888 5.593.726 1.889-.944 1.744-2.324-.508-6.174-1.525-2.615-1.743-3.414-1.017-4.358 2.179-2.542 5.23-.218 3.414 2.687-.726 1.163-.654 1.598.218 2.325.654.436 2.615 2.397 4.358 4.358l3.123 3.486-3.341 3.414c-1.888 1.889-3.414 3.777-3.414 4.213 0 .509 1.453 2.47 3.269 4.504 3.486 3.777 3.777 5.157 2.469 9.66-.653 2.107-2.033 3.705-5.81 6.61-2.688 2.106-5.085 4.213-5.303 4.721-.363.799 2.906 6.029 6.973 11.114 1.961 2.469 2.034 2.469 5.085 1.67 1.743-.508 3.341-.654 3.631-.363.291.291 1.381 2.905 2.397 5.811l1.816 5.23-3.631 7.191-3.632 7.118.799 5.738c.581 3.922 1.525 6.973 3.05 9.733 1.962 3.487 2.252 4.867 2.543 10.896.363 7.481.944 9.442 2.905 9.442 2.47 0 3.051 1.526 3.051 8.063 0 7.045.508 7.844 5.447 9.007 3.632.871 3.995 1.598 3.995 7.191 0 5.011-.145 5.447-2.978 9.442l-3.05 4.213 1.234 3.777c.654 2.107 1.163 4.286 1.163 4.867 0 1.307-7.119 9.37-8.208 9.37-.509 0-3.414-1.526-6.465-3.269zM276.964 577.542c-.218-.581-.073-2.107.363-3.414 1.017-2.906.218-3.995-3.777-4.649-5.52-.871-5.811-1.307-3.922-5.23.944-1.888 2.469-5.447 3.413-7.989 2.107-5.811 7.046-10.751 10.024-10.024 4.939 1.235 5.448 1.017 7.917-3.559 3.85-7.119 2.978-9.734-2.76-8.426-2.469.508-4.576.363-9.297-.654-3.341-.726-6.247-1.598-6.537-1.961-.291-.363-1.162-2.034-1.889-3.777l-1.38-3.123 1.816-1.38c3.123-2.47 4.721-2.47 7.699-.146 2.325 1.889 3.632 2.252 8.644 2.688 6.828.654 6.682.726 9.007-6.319.871-2.688 1.816-4.867 2.034-4.867 1.525 0 16.778 6.682 18.594 8.135 1.744 1.38 2.179 2.324 2.47 5.738.291 4.068.291 4.068-3.341 8.136-3.705 4.067-6.683 8.934-6.683 10.895 0 .654 1.743 1.525 4.722 2.324 2.614.727 4.721 1.453 4.721 1.598 0 .218-.726 1.598-1.525 3.124-1.889 3.341-2.615 3.341-12.131-.146-6.755-2.469-8.425-2.251-10.677 1.09-1.09 1.743-1.09 2.179.654 7.481 1.888 6.029 1.525 7.119-1.671 5.375-2.106-1.162-7.772-.944-9.079.363-.582.582-1.308 2.543-1.598 4.359-.218 1.816-.945 3.777-1.526 4.358-1.38 1.38-3.777 1.38-4.285 0z" fill="#E5E5E5"/><path d="M271.372 598.389c-3.487-2.179-4.431-2.47-5.448-1.743-3.777 2.687-4.358 2.687-7.336-.218-2.325-2.179-2.978-3.487-3.342-6.392-.871-5.884-4.793-8.426-10.096-6.392-2.034.799-1.888.872-7.191-5.375l-1.816-2.179-6.028 1.235c-3.342.726-6.465 1.307-6.973 1.307-.509 0-1.235-1.307-1.671-2.833-.363-1.598-1.308-3.559-2.034-4.503-1.162-1.38-1.525-1.453-2.905-.726-.872.435-1.889.653-2.252.435-.363-.218-1.162-3.413-1.889-7.118-.726-3.704-1.598-7.263-1.888-7.917-.363-.727-2.107-1.889-3.922-2.688-3.196-1.452-3.269-1.525-3.269-5.012 0-4.721-.726-5.302-6.174-4.721l-4.503.363-.436-2.324c-.727-3.414-.799-3.341 2.397-4.286 1.743-.508 3.559-1.743 4.576-3.123 1.017-1.38 3.777-3.196 7.409-4.939 5.011-2.397 6.609-3.559 11.839-9.297 3.269-3.632 5.956-7.191 5.956-7.918 0-.799 1.017.146 2.543 2.47 2.324 3.414 2.542 4.213 2.614 9.079 0 4.576.436 6.392 3.487 13.946 3.196 7.845 3.414 8.862 2.833 11.913-.872 4.721-.436 5.447 3.05 5.011 1.598-.217 3.051-.145 3.269.218.581.872-.944 4.431-2.324 5.448-1.09.799-1.017 1.09.363 3.341 1.38 2.325 1.453 2.688.508 4.576-1.816 3.414-1.38 4.504 1.671 5.012 4.14.727 6.537.581 8.135-.436 1.235-.726 1.816-.508 4.286 1.962 3.414 3.268 4.503 3.123 6.609-1.017.799-1.598 2.034-2.906 2.688-2.906 2.905 0 10.387 1.744 10.387 2.47 0 .436-.509 2.324-1.235 4.213l-1.235 3.414 4.068 6.028c6.174 9.37 6.029 8.789 3.414 11.767-1.235 1.453-2.615 2.615-3.051 2.543-.508 0-2.76-1.163-5.084-2.688z" fill="#E5E5E5"/><path d="M254.666 571.949c-2.397-1.961-2.978-2.179-4.576-1.453-1.888.872-6.973 1.162-7.699.436-.218-.218-.073-1.525.363-2.906.508-1.598.508-2.978.073-4.067-.509-1.162-.364-2.688.581-5.52 1.888-5.811 1.888-5.957-2.252-5.957h-3.559l.363-3.849c.363-3.414 0-4.722-2.978-11.695-2.688-6.392-3.341-8.643-3.341-12.13 0-3.922.29-4.794 3.414-9.442 2.396-3.632 3.559-6.174 3.849-8.499l.363-3.414 5.448-1.67c6.537-2.034 7.118-2.47 5.884-4.794-1.453-2.615-.799-3.341 4.067-5.23l4.504-1.671 1.815 2.397c1.453 1.962 2.47 2.47 5.448 2.906 3.85.508 5.448 1.961 8.063 7.191.581 1.162 1.888 2.397 2.905 2.76 1.017.436 2.47 1.307 3.269 2.034 2.76 2.469 11.258 6.755 12.711 6.392 1.816-.509 1.816.653.073 5.665l-1.308 3.632-4.14.218c-4.358.218-7.336-1.017-10.242-4.213-.726-.799-1.743-1.453-2.324-1.453-1.816 0-8.934 5.23-8.934 6.537 0 2.252 3.777 10.097 5.012 10.46 4.939 1.453 11.912 2.615 14.745 2.47 1.888-.073 3.704.072 3.922.29.291.291-.363 1.961-1.453 3.777-1.816 3.124-1.961 3.196-4.067 2.47-1.235-.436-2.906-.581-3.85-.363-1.889.508-9.225 7.263-9.225 8.498 0 .508-1.452 4.431-3.341 8.716-2.615 6.247-3.632 7.918-4.867 8.136-.944.072-2.179 1.234-3.05 2.905-.799 1.525-1.744 2.76-2.179 2.687-.364 0-1.962-1.016-3.487-2.251zM151.16 548.343c-.364-.726-.945-2.469-1.235-3.849-.291-1.453-1.671-5.593-3.124-9.298-2.251-5.883-2.832-6.827-4.576-7.191-1.234-.218-2.469-1.307-3.486-3.196-1.162-2.106-2.179-2.905-3.923-3.268l-2.397-.436.073-6.319c0-4.068-.29-6.828-.872-7.482-.508-.581-3.413-1.67-6.464-2.469-5.012-1.235-5.666-1.598-6.683-3.705-.871-1.888-.944-2.76-.29-4.067.436-.872.944-2.906 1.017-4.504.218-2.833.363-2.978 5.665-5.665 2.978-1.453 5.811-2.688 6.247-2.688.363 0 2.034 1.308 3.632 2.978 1.525 1.598 5.084 4.939 7.772 7.336 4.503 3.995 5.52 4.576 11.331 6.102 4.939 1.307 7.046 2.324 9.225 4.213 1.525 1.452 4.213 3.123 6.029 3.704 1.888.654 3.777 1.453 4.358 1.671 2.832 1.452 14.164 26.294 12.42 27.383-.944.581-15.689 3.051-21.936 3.705-5.375.508-6.9 1.598-8.207 5.593-.872 2.687-3.487 3.486-4.576 1.452zm35.518-17.069c-1.453-4.722-6.973-16.053-9.007-18.595-.581-.726-.291-1.09.944-1.38 1.525-.436 1.598-.654 1.09-5.52-.582-6.174-.436-6.32 6.609-6.32 4.867 0 5.303.146 9.007 2.906 2.179 1.598 4.068 2.905 4.213 2.905.145 0 1.961-1.453 4.068-3.268l3.849-3.269 1.598 2.179c1.816 2.542 2.978 2.687 4.794.726 1.671-1.888 2.688-1.888 4.867.218 1.162 1.09 2.106 3.124 2.76 6.102l.944 4.503-5.375 6.029c-6.392 7.118-5.665 6.537-11.549 9.079-2.905 1.235-5.883 3.196-7.699 5.085-1.889 1.888-3.705 3.123-4.722 3.123-.944 0-2.397.145-3.195.363-1.308.363-1.744-.218-3.196-4.866z" fill="#E5E5E5"/><path d="M228.007 512.461c-1.67-2.397-3.268-4.14-3.632-3.922-.581.363-2.179-3.923-2.179-5.956 0-.945-4.576-4.576-5.81-4.576-.509 0-1.744.653-2.761 1.452l-1.961 1.526-1.598-2.034c-.944-1.162-1.67-2.397-1.67-2.833 0-.436-.799-1.525-1.671-2.397-.944-.872-2.106-2.905-2.615-4.503-.726-2.543-1.089-2.833-3.196-2.833-2.687-.073-3.414-.436-5.084-3.051-1.017-1.67-1.816-2.034-5.012-2.179-2.688-.145-3.922-.581-4.068-1.307-.145-.799.436-1.162 1.816-1.162 1.162 0 3.632-.073 5.52-.146l3.56-.145-.291-3.051-.218-3.05 3.995-1.308c2.179-.726 6.973-2.252 10.678-3.414l6.609-2.106 2.615 1.743c1.744 1.235 3.124 1.598 4.358 1.308 1.889-.436 2.034-.146 3.777 9.442.582 3.196 2.906 8.862 3.85 9.443.363.218 3.487-.581 6.973-1.743 3.487-1.235 6.683-1.962 6.973-1.816 1.308.799.581 3.268-1.525 5.665-2.688 3.051-2.688 3.85-.363 4.431 2.324.581 4.213 4.068 2.542 4.649-.581.218-3.051 1.089-5.448 1.888l-4.358 1.526-.363 3.341c-.291 2.179-1.308 4.794-3.123 7.481-1.453 2.179-2.833 4.068-3.051 4.068-.145 0-1.671-1.961-3.269-4.431z" fill="#E5E5E5"/><path d="M172.587 507.812c-1.961-.581-4.866-1.888-6.464-2.978l-2.978-1.888 4.212-3.777 4.286-3.777-.944-4.358c-.509-2.397-.799-5.593-.654-7.191l.218-2.906 3.922-.218c3.559-.218 3.922-.436 4.649-2.397.436-1.162 1.162-2.106 1.598-2.106 1.67 0 3.922 2.252 4.14 4.14.145 1.09.726 2.034 1.307 2.107 8.063 1.089 7.99 1.089 9.08 3.195.944 1.744 1.598 2.18 3.704 2.18 2.252 0 2.688.29 3.705 2.687.581 1.525 1.816 3.487 2.615 4.431l1.598 1.67-3.414 3.269-3.487 3.269-3.849-2.978c-3.632-2.688-4.213-2.906-8.571-2.906-2.543 0-5.884.363-7.482.799l-2.76.727.436 5.011c.581 5.666.799 5.521-4.867 3.995zm105.176-4.576c-.435-.291-1.888-2.324-3.195-4.503-1.308-2.252-2.47-4.068-2.543-4.213-.145-.073-1.961-.509-4.14-.872-3.051-.581-4.358-1.307-5.956-3.123-1.816-2.107-4.431-7.046-3.995-7.482.145-.072 1.453-.653 2.978-1.307 1.453-.581 2.688-1.526 2.688-2.107 0-.508 1.307-3.704 2.905-6.973 1.816-3.777 2.905-7.045 2.905-8.789 0-4.358.799-7.118 2.543-8.934.871-.871 2.106-2.615 2.687-3.777 1.017-1.888 1.017-2.469.073-5.084-.944-2.833-.944-2.978.654-4.286 2.76-2.179 7.626-6.828 8.207-7.699.218-.436-1.38-2.688-3.631-5.012-3.995-4.285-4.068-4.358-3.85-8.208.218-3.704.363-3.85 2.324-4.14 1.162-.073 3.196 0 4.576.218 2.034.436 2.76 1.089 4.068 3.922 1.598 3.269 1.743 3.414 7.627 5.157l5.956 1.744 7.263-1.308c8.063-1.525 9.08-1.38 19.103 2.252 3.051 1.089 5.593 2.469 5.593 2.978 0 .508-.653 2.179-1.452 3.632-.799 1.525-1.453 3.559-1.453 4.648 0 3.342-10.532 15.181-14.89 16.634l-2.688.872.363 3.413c.218 1.889.945 4.576 1.671 6.029 1.162 2.47 1.162 2.76.073 4.504-.654 1.016-1.235 2.76-1.235 3.995 0 1.961-.363 2.251-4.14 3.631-4.649 1.744-6.029 3.051-6.029 5.739 0 1.743-.073 1.743-4.358 1.307l-4.286-.508-1.816 3.631-1.888 3.632-4.141.218-4.212.218-1.09 5.012c-1.089 4.939-1.816 6.029-3.269 4.939z" fill="#E5E5E5"/><path d="M154.79 498.878c-6.61-1.889-7.046-2.179-13.583-8.135-3.704-3.414-6.973-6.683-7.191-7.191-.29-.581.073-1.38.654-1.816.944-.727 1.09-2.325.944-9.516l-.218-8.643 1.962-.727c2.832-1.016 10.822 4.286 14.091 9.443 2.978 4.576 3.341 4.867 5.084 3.559 1.163-.799 1.889-.726 5.375.799 6.029 2.688 6.32 3.196 6.756 11.404l.29 7.046-3.341 2.905c-1.816 1.598-3.487 2.833-3.705 2.833-.217 0-3.413-.944-7.118-1.961zm92.683-8.353c1.235-1.307 1.598-2.615 1.598-5.448 0-4.576-.072-4.576-8.571-1.815-5.956 1.961-6.101 1.961-7.118.581-1.38-1.889-1.308-3.269.508-7.99 1.017-2.833 1.889-3.995 2.833-3.995 1.816 0 2.688-1.308 3.269-5.085.726-4.431 1.017-4.721 4.285-4.721 2.76 0 2.978-.218 6.247-5.448 3.995-6.246 3.632-6.174 11.622-2.324l5.447 2.687-.218 5.085c-.145 3.196-.653 5.883-1.452 7.263-.727 1.163-2.034 3.923-2.906 6.174-1.38 3.342-2.106 4.141-4.576 5.23-2.615 1.09-2.905 1.453-2.469 2.906 1.38 4.285 1.017 5.084-3.632 6.827-5.666 2.252-6.901 2.252-4.867.073z" fill="#E5E5E5"/><path d="M163.508 475.272c-4.503-2.18-6.247-2.688-6.828-2.107-1.38 1.308-1.743 1.09-3.849-2.469-1.308-2.252-3.487-4.359-6.901-6.61l-5.084-3.342 2.76-2.978c1.525-1.67 3.85-4.285 5.23-5.81 3.704-4.068 4.576-4.359 8.789-2.979l3.559 1.163v5.084c0 4.286.363 5.593 2.251 9.007 1.235 2.179 2.47 4.14 2.833 4.285.291.218 2.906-.799 5.738-2.179 2.906-1.38 5.375-2.469 5.521-2.469.145 0 .944 1.307 1.743 2.905l1.525 2.906-2.179 4.358-2.179 4.358-3.486-.073c-2.47-.072-5.085-.871-9.443-3.05zm20.12.217c-2.107-1.744-2.252-2.107-1.598-4.141.508-1.307.508-2.615.145-3.196-1.09-1.743-.726-2.469 1.743-3.559 2.107-1.017 2.325-1.452 2.542-4.866.218-3.705.291-3.85 2.761-4.286 1.38-.29 4.285 0 6.609.581l4.213 1.017 1.308 3.922c.653 2.179 1.452 4.504 1.67 5.23.291.944-.581 1.743-3.849 3.269-3.995 1.888-4.213 2.179-3.995 4.358.218 2.687-.073 2.833-5.448 3.269-3.269.29-4.068.072-6.101-1.598zm46.996-.145c-.218-.509-1.235-6.029-2.325-12.13-1.162-6.174-2.469-11.622-2.905-12.058-.944-.944-12.348-3.704-14.019-3.341-.581.073-1.961.872-3.05 1.671-1.163.871-2.18 1.38-2.325 1.234-.145-.145-.508-1.815-.726-3.631-.363-2.978-.218-3.487 2.179-5.957 1.525-1.67 2.978-2.614 3.777-2.396.654.145 1.961.508 2.833.798 1.235.364 2.542-.072 4.576-1.525 1.525-1.089 2.833-2.252 2.833-2.542 0-.363-1.744-2.034-3.923-3.704-2.179-1.744-3.995-3.487-3.995-3.995-.072-.436 1.526-1.816 3.414-3.051 3.124-2.034 4.14-2.252 8.716-2.252h5.23v-4.649c0-3.922.291-4.794 1.816-6.246 1.017-.944 1.816-2.179 1.816-2.688 0-.581.726-2.397 1.525-4.067 1.235-2.325 1.38-3.269.727-4.286-.727-1.162-.218-1.598 4.285-3.85 2.76-1.38 5.375-2.542 5.738-2.542.364 0 1.235.872 1.889 1.961 1.235 1.816 1.235 2.179.073 6.683-.945 3.486-1.962 5.52-3.923 7.481l-2.615 2.76.799 3.778c1.453 7.045 3.196 12.202 4.141 12.202.508 0 2.614-1.525 4.721-3.268 2.106-1.816 3.85-3.269 3.922-3.269.073 0 2.615.654 5.593 1.453 2.978.799 7.118 1.453 9.08 1.453 3.486.072 3.777.217 7.263 4.14l3.632 4.067-5.084 4.649-5.012 4.649 1.162 3.196c1.162 3.123 1.162 3.123-1.017 6.101-1.162 1.598-2.324 2.978-2.47 2.978-.218 0-1.888-.799-3.849-1.816-6.32-3.196-11.114-4.794-12.131-3.922-.508.363-2.251 2.978-3.849 5.738-2.978 4.939-3.051 5.012-6.392 5.23l-3.487.218-.944 4.503c-.799 3.559-1.307 4.576-2.324 4.576-1.598 0-2.615 1.162-3.269 3.777-.581 2.325-1.671 3.269-2.106 1.889z" fill="#E5E5E5"/><path d="M205.272 466.991c-.145-.363-1.089-3.123-1.961-6.247-1.017-3.486-2.106-5.738-2.832-5.883-.654-.218-3.051-.727-5.375-1.162l-4.213-.872.218-4.068.217-3.995 3.269-.944c2.76-.871 3.487-.799 4.867.073.871.581 2.106 1.089 2.615 1.089.726 0 1.234 1.308 1.525 4.358.581 5.085 1.235 5.303 5.52 2.252l2.906-2.106 5.956 1.38c3.268.799 6.101 1.525 6.174 1.67.145.073.726 2.906 1.307 6.247.944 5.375.944 6.247 0 7.191s-1.307.872-3.123-.508c-1.162-.799-2.542-1.598-3.123-1.744-.872-.145-8.862 2.034-12.566 3.487-.509.218-1.163.073-1.381-.218z" fill="#E5E5E5"/><path d="M164.815 462.559c-1.162-2.324-1.888-5.157-2.179-8.861l-.363-5.375-4.431-1.308c-4.431-1.307-7.409-3.922-6.61-5.956.218-.436 5.012-2.905 10.678-5.52 8.062-3.704 10.532-5.157 11.331-6.755 1.235-2.252 1.089-2.252 4.721-1.162 2.542.726 2.906.653 4.867-.945 1.816-1.525 3.196-1.888 8.28-2.251 3.414-.218 6.828-.799 7.7-1.38 1.452-.872 1.961-.727 4.939.871 1.816 1.017 5.883 3.923 9.079 6.465 5.666 4.431 5.738 4.649 4.504 6.029-1.235 1.307-3.777 1.38-7.046.145-.581-.218-2.542 1.235-4.431 3.268l-3.414 3.632-1.961-1.452c-1.816-1.381-2.034-1.381-6.61-.146l-4.721 1.308-.218 4.939c-.218 4.721-.29 4.939-2.324 5.666-2.034.726-2.179 1.016-2.179 4.576 0 3.341-.218 3.922-1.889 4.794-1.67.944-1.961.871-2.833-.218-1.162-1.671-1.67-1.598-7.045.944-2.47 1.162-4.94 2.179-5.303 2.179-.436 0-1.598-1.598-2.542-3.487z" fill="#E5E5E5"/></svg>