<svg width="29" height="29" fill="none" xmlns="http://www.w3.org/2000/svg"><path d="M17.103 0a3.72 3.72 0 013.65 3.008 6.693 6.693 0 016.009 6.337c.005.107.006.368.004.39 1.02 1.1 1.49 2.23 1.49 3.65a5.931 5.931 0 01-1.742 4.206c-.27.27-.562.511-.873.722.252.628.385 1.312.385 2.016 0 2.46-1.62 4.525-3.77 4.894a4.463 4.463 0 01-8.128 1.783 4.463 4.463 0 01-8.127-1.782c-2.151-.37-3.77-2.436-3.77-4.895 0-.704.132-1.388.384-2.016a5.976 5.976 0 01-.873-.722A5.931 5.931 0 010 13.385c0-1.39.478-2.512 1.494-3.614-.004-.034 0-.848.158-1.59a6.697 6.697 0 015.852-5.173 3.72 3.72 0 016.624-1.521A3.712 3.712 0 0117.103 0zm-2.231 3.718v11.153a3.702 3.702 0 012.23-.743.744.744 0 010 1.487 2.23 2.23 0 00-2.23 2.231v6.692a2.974 2.974 0 005.876.654 3.72 3.72 0 01-2.902-3.628.744.744 0 111.487 0 2.23 2.23 0 002.231 2.23c1.62 0 2.974-1.532 2.974-3.465 0-.468-.08-.922-.23-1.34a5.949 5.949 0 01-1.339.308c.054.251.082.512.082.78a.744.744 0 11-1.487 0 2.23 2.23 0 00-2.23-2.23.744.744 0 010-1.488c1.216 0 2.296.584 2.974 1.487a4.446 4.446 0 003.154-1.307 4.445 4.445 0 001.307-3.154c0-1.103-.368-1.92-1.27-2.82-.217-.272-.64-.511-.948-.634a2.974 2.974 0 00-2.858.362c-.02.9-.383 1.794-1.09 2.502a.744.744 0 11-1.052-1.052c.871-.87.871-2.167 0-3.038a.744.744 0 111.052-1.051c.33.33.584.7.764 1.093a4.468 4.468 0 013.8-.171 5.208 5.208 0 00-5.09-4.114 2.23 2.23 0 00-2.23 2.23.744.744 0 01-1.488 0 3.72 3.72 0 012.879-3.623 2.232 2.232 0 00-4.366.649zm-1.487 0a2.23 2.23 0 00-4.366-.649 3.72 3.72 0 012.878 3.623.744.744 0 11-1.487 0 2.23 2.23 0 00-2.23-2.23 5.206 5.206 0 00-5.177 4.654 4.464 4.464 0 014.113 1.019 3.701 3.701 0 011.807-.468.744.744 0 010 1.487 2.23 2.23 0 00-2.23 2.23.744.744 0 11-1.488 0c0-.853.288-1.64.772-2.268a2.976 2.976 0 00-3.356-.25 2.555 2.555 0 00-.394.34c-.516.684-.74 1.356-.74 2.179a4.44 4.44 0 001.307 3.154 4.446 4.446 0 003.155 1.307.744.744 0 110 1.487 5.962 5.962 0 01-2-.345 3.943 3.943 0 00-.231 1.341c0 1.667 1.007 3.037 2.323 3.382a3.72 3.72 0 013.542-2.89 3.664 3.664 0 011.045-2.014.744.744 0 111.052 1.052c-.871.871-.871 2.167 0 3.038a.744.744 0 11-1.052 1.052 3.697 3.697 0 01-.964-1.641 2.23 2.23 0 00-2.228 2.23 2.974 2.974 0 005.949 0v-12.29a4.445 4.445 0 01-2.975 1.137.744.744 0 110-1.488 2.974 2.974 0 002.975-2.974V3.718z" fill="#F53838"/></svg>