<svg width="60" height="61" fill="none" xmlns="http://www.w3.org/2000/svg"><path d="M21.25 31.308h14.825l-4.538 5.46a1.255 1.255 0 001.078 2.05c.33-.03.635-.19.847-.446l6.25-7.514a1.5 1.5 0 00.113-.188c0-.063 0-.1.087-.163.057-.144.087-.297.088-.45a1.254 1.254 0 00-.087-.452c0-.062 0-.1-.088-.163a1.494 1.494 0 00-.113-.187l-6.25-7.514a1.25 1.25 0 00-1.762-.163 1.253 1.253 0 00-.162 1.766l4.537 5.46H21.25A1.249 1.249 0 0020 30.056a1.253 1.253 0 001.25 1.252z" fill="#F53838"/><path d="M1 30.056C1 14.007 13.986 1 30 1s29 13.007 29 29.056-12.986 29.056-29 29.056S1 46.105 1 30.056z" stroke="#F53838" stroke-width="2"/></svg>