<svg width="60" height="61" fill="none" xmlns="http://www.w3.org/2000/svg"><path d="M38.75 28.803H23.925l4.537-5.46a1.255 1.255 0 00-1.077-2.05c-.33.03-.635.192-.848.447l-6.25 7.514c-.041.06-.08.123-.112.188 0 .063 0 .1-.088.163a1.254 1.254 0 00-.087.45c.001.155.03.308.087.451 0 .063 0 .1.088.163.033.066.07.128.113.188l6.25 7.514a1.25 1.25 0 002.07-.217 1.254 1.254 0 00-.146-1.386l-4.537-5.46H38.75A1.249 1.249 0 0040 30.056a1.253 1.253 0 00-1.25-1.253z" fill="#F53838"/><path d="M59 30.056c0 16.049-12.986 29.056-29 29.056S1 46.105 1 30.056 13.986 1 30 1s29 13.007 29 29.056z" stroke="#F53838" stroke-width="2"/></svg>