<svg width="372" height="372" fill="none" xmlns="http://www.w3.org/2000/svg"><circle cx="250.873" cy="28.581" r="14.971" fill="#FFE693"/><circle cx="343.42" cy="121.127" r="14.971" fill="#FC806B"/><circle cx="306.22" cy="64.873" r="14.971" fill="#FE9076"/><path d="M185.807 372C83.35 372 0 288.564 0 186S83.35 0 185.807 0c8.547 0 15.484 6.944 15.484 15.5 0 8.556-6.937 15.5-15.484 15.5-85.378 0-154.84 69.533-154.84 155s69.462 155 154.84 155 154.839-69.533 154.839-155c0-8.556 6.921-15.5 15.484-15.5 8.562 0 15.484 6.944 15.484 15.5 0 102.564-83.35 186-185.807 186zm0-341c-4.026 0-8.052-1.705-10.994-4.495-2.787-2.945-4.49-6.975-4.49-11.005 0-4.03 1.703-8.06 4.49-11.005 5.884-5.735 16.258-5.735 21.987 0 2.787 2.945 4.491 6.975 4.491 11.005 0 4.03-1.704 8.06-4.491 11.005-2.942 2.79-6.967 4.495-10.993 4.495zM356.13 201.5c-4.026 0-8.067-1.705-10.994-4.495-2.802-2.945-4.49-6.975-4.49-11.005 0-4.03 1.688-8.06 4.49-11.005 5.884-5.735 16.258-5.735 21.987 0 2.787 2.945 4.491 6.975 4.491 11.005 0 4.03-1.704 8.06-4.491 11.005-2.942 2.79-6.968 4.495-10.993 4.495z" fill="#F2F2F2"/><rect x="170.575" y="96.176" width="23.59" height="97.083" rx="11.795" fill="#F2F2F2"/></svg>